<?xml version="1.0" encoding="UTF-8"?>
<svg width="62px" height="62px" viewBox="0 0 62 62" version="1.1" xmlns="http://www.w3.org/2000/svg" xmlns:xlink="http://www.w3.org/1999/xlink">
    <title>DFFF8372-02F9-464B-B165-932342067B4D@3x</title>
    <g id="Final-UI" stroke="none" stroke-width="1" fill="none" fill-rule="evenodd">
        <g id="sponsor-video-" transform="translate(-661.000000, -373.000000)">
            <g id="Group-3">
                <g id="Group" transform="translate(661.000000, 373.000000)">
                    <circle id="Oval" fill-opacity="0.601316652" fill="#000000" cx="30.7999982" cy="30.7999982" r="30.7999982"></circle>
                    <polygon id="Path" points="10.3999994 10.3999994 29.5999982 10.3999994 29.5999982 29.5999982 10.3999994 29.5999982"></polygon>
                    <path d="M42.0314919,31.7718389 L24.4862214,41.4848837 C24.2322665,41.6252168 23.9059424,41.6381798 23.6370155,41.5186178 C23.3680885,41.3990558 23.1999986,41.1663517 23.1999986,40.9130429 L23.1999986,21.4869533 C23.1999986,21.2336446 23.3680885,21.0009405 23.6370155,20.8813785 C23.9059424,20.7618165 24.2322665,20.7747795 24.4862214,20.9151126 L42.0314919,30.6281574 C42.2617167,30.7556347 42.3999975,30.9702164 42.3999975,31.1999981 C42.3999975,31.4297799 42.2617167,31.6443616 42.0314919,31.7718389 Z" id="Path" fill="#FFFFFF" fill-rule="nonzero"></path>
                </g>
            </g>
        </g>
    </g>
</svg>