<?xml version="1.0" encoding="UTF-8"?>
<svg width="16px" height="13px" viewBox="0 0 16 13" version="1.1" xmlns="http://www.w3.org/2000/svg" xmlns:xlink="http://www.w3.org/1999/xlink">
    <title>44DCD89D-EF6F-40E4-86C6-A4C980CF3FF2@2x</title>
    <g id="Final-UI" stroke="none" stroke-width="1" fill="none" fill-rule="evenodd">
        <g id="Event-Landing-Copy-2" transform="translate(-1085.000000, -4705.000000)" fill="#171D63" fill-rule="nonzero">
            <g id="Group-2" transform="translate(0.000000, 4679.000000)">
                <g id="Group-28" transform="translate(1085.000000, 20.000000)">
                    <g id="Group">
                        <path d="M1.41666667,7.89583333 L1.41666667,6.828375 C1.41936387,6.44131018 1.73227142,6.1280872 2.11933333,6.125 L14.8806667,6.125 C15.2688333,6.125 15.5833333,6.44020833 15.5833333,6.828375 L15.5833333,18.171625 C15.5806361,18.5586898 15.2677286,18.8719128 14.8806667,18.875 L2.11933333,18.875 C1.7311467,18.8746091 1.41666667,18.5598118 1.41666667,18.171625 L1.41666667,17.4583333 L14.1666667,17.4583333 L14.1666667,9.17083333 L8.5,14.2708333 L1.41666667,7.89583333 Z M0,11.0833333 L3.54166667,11.0833333 L3.54166667,12.5 L0,12.5 L0,11.0833333 Z M0,14.625 L5.66666667,14.625 L5.66666667,16.0416667 L0,16.0416667 L0,14.625 Z" id="Shape"></path>
                    </g>
                </g>
            </g>
        </g>
    </g>
</svg>