<?xml version="1.0" encoding="UTF-8"?>
<svg width="13px" height="13px" viewBox="0 0 13 13" version="1.1" xmlns="http://www.w3.org/2000/svg" xmlns:xlink="http://www.w3.org/1999/xlink">
    <title>F69E5C6E-E7F3-4466-A802-AB3CC7FBBC36@2x</title>
    <g id="Final-UI" stroke="none" stroke-width="1" fill="none" fill-rule="evenodd">
        <g id="Event-Landing-Copy-2" transform="translate(-1087.000000, -4734.000000)" fill="#171D63" fill-rule="nonzero">
            <g id="Group-2" transform="translate(0.000000, 4679.000000)">
                <g id="Group-28" transform="translate(1085.000000, 20.000000)">
                    <g id="Group" transform="translate(0.000000, 30.000000)">
                        <path d="M14.7326405,14.6922223 L14.7326405,17.246 C14.7328053,17.6253793 14.4514676,17.9402213 14.0885652,17.9667778 C13.7859191,17.9884444 13.5386772,18 13.3475323,18 C7.22743171,18 2.26666667,12.8267223 2.26666667,6.44444461 C2.26666667,6.24511128 2.27705498,5.98727795 2.29852416,5.67166685 C2.32398976,5.29321815 2.62589837,4.99982833 2.98969315,5 L5.43856446,5 C5.61653288,4.99981227 5.76565964,5.14033802 5.7834564,5.32500018 C5.79938515,5.49111129 5.81392878,5.62327796 5.82777986,5.72366684 C5.96541407,6.72533358 6.2474696,7.69954532 6.66438522,8.61327791 C6.73017786,8.75772236 6.68723951,8.93033346 6.56257977,9.02277791 L5.06804801,10.1364446 C5.98184084,12.3568816 7.67866438,14.1263949 9.80788829,15.0793334 L10.8744216,13.5236667 C10.9643848,13.3925081 11.1314208,13.3472121 11.2712551,13.4160556 C12.1473509,13.8500141 13.0813003,14.1434191 14.0414715,14.2863334 C14.1377365,14.3007778 14.2644739,14.3166667 14.4223763,14.3325556 C14.5991783,14.3514604 14.7335491,14.5068797 14.7333333,14.6922223 L14.7326405,14.6922223 Z" id="Path"></path>
                    </g>
                </g>
            </g>
        </g>
    </g>
</svg>