<svg id="Layer_1" data-name="Layer 1" xmlns="http://www.w3.org/2000/svg" xmlns:xlink="http://www.w3.org/1999/xlink" viewBox="0 0 175 100"><defs><style>.cls-1{fill:#b72528;}.cls-2{fill:#fff;}.cls-3{fill:url(#linear-gradient);}.cls-4{fill:url(#linear-gradient-2);}.cls-5{fill:url(#linear-gradient-3);}.cls-6{fill:url(#linear-gradient-4);}.cls-7{fill:url(#linear-gradient-5);}.cls-8{fill:url(#linear-gradient-6);}.cls-9{fill:url(#linear-gradient-7);}.cls-10{fill:url(#linear-gradient-8);}.cls-11{fill:url(#linear-gradient-9);}.cls-12{fill:url(#linear-gradient-10);}.cls-13{fill:url(#linear-gradient-11);}.cls-14{fill:url(#linear-gradient-12);}.cls-15{fill:url(#linear-gradient-13);}.cls-16{fill:url(#linear-gradient-14);}.cls-17{fill:url(#linear-gradient-15);}.cls-18{fill:url(#linear-gradient-16);}.cls-19{fill:url(#linear-gradient-17);}.cls-20,.cls-21,.cls-22,.cls-23,.cls-24,.cls-25{fill-rule:evenodd;}.cls-20{fill:url(#radial-gradient);}.cls-21{fill:url(#GradientFill_7);}.cls-22{fill:url(#GradientFill_2);}.cls-23{fill:url(#linear-gradient-18);}.cls-24{fill:url(#GradientFill_6);}.cls-25{fill:url(#linear-gradient-19);}.cls-26{fill:url(#GradientFill_2-2);}.cls-27{fill:url(#GradientFill_2-3);}.cls-28{fill:url(#GradientFill_2-4);}.cls-29{fill:url(#linear-gradient-20);}.cls-30{fill:url(#linear-gradient-21);}.cls-31{fill:url(#linear-gradient-22);}.cls-32{fill:url(#linear-gradient-23);}.cls-33{fill:url(#linear-gradient-24);}.cls-34{fill:url(#linear-gradient-25);}.cls-35{fill:url(#linear-gradient-26);}</style><linearGradient id="linear-gradient" x1="57.35" y1="53.51" x2="108.63" y2="71.75" gradientUnits="userSpaceOnUse"><stop offset="0" stop-color="#2da2db"/><stop offset="1" stop-color="#2b357d"/></linearGradient><linearGradient id="linear-gradient-2" x1="58.54" y1="50.18" x2="109.81" y2="68.42" xlink:href="#linear-gradient"/><linearGradient id="linear-gradient-3" x1="59.53" y1="47.38" x2="110.81" y2="65.62" xlink:href="#linear-gradient"/><linearGradient id="linear-gradient-4" x1="60.74" y1="44.01" x2="112.01" y2="62.25" xlink:href="#linear-gradient"/><linearGradient id="linear-gradient-5" x1="61.97" y1="40.54" x2="113.24" y2="58.78" xlink:href="#linear-gradient"/><linearGradient id="linear-gradient-6" x1="62.97" y1="37.73" x2="114.24" y2="55.97" xlink:href="#linear-gradient"/><linearGradient id="linear-gradient-7" x1="64.23" y1="34.18" x2="115.5" y2="52.42" xlink:href="#linear-gradient"/><linearGradient id="linear-gradient-8" x1="54.51" y1="61.51" x2="105.78" y2="79.76" xlink:href="#linear-gradient"/><linearGradient id="linear-gradient-9" x1="55.17" y1="59.66" x2="106.44" y2="77.9" xlink:href="#linear-gradient"/><linearGradient id="linear-gradient-10" x1="56.12" y1="56.97" x2="107.39" y2="75.21" xlink:href="#linear-gradient"/><linearGradient id="linear-gradient-11" x1="56.69" y1="55.37" x2="107.96" y2="73.61" xlink:href="#linear-gradient"/><linearGradient id="linear-gradient-12" x1="57.48" y1="53.15" x2="108.75" y2="71.39" xlink:href="#linear-gradient"/><linearGradient id="linear-gradient-13" x1="58.41" y1="50.53" x2="109.68" y2="68.77" xlink:href="#linear-gradient"/><linearGradient id="linear-gradient-14" x1="59.06" y1="48.73" x2="110.33" y2="66.97" xlink:href="#linear-gradient"/><linearGradient id="linear-gradient-15" x1="59.77" y1="46.73" x2="111.04" y2="64.97" xlink:href="#linear-gradient"/><linearGradient id="linear-gradient-16" x1="60.54" y1="44.55" x2="111.81" y2="62.79" xlink:href="#linear-gradient"/><linearGradient id="linear-gradient-17" x1="61.47" y1="41.93" x2="112.74" y2="60.17" xlink:href="#linear-gradient"/><radialGradient id="radial-gradient" cx="-14991.56" cy="-1976.52" r="72.26" gradientTransform="matrix(-0.97, -0.26, -0.26, 0.97, -14920.01, -1985.56)" gradientUnits="userSpaceOnUse"><stop offset="0" stop-color="#24aee4"/><stop offset="0.26" stop-color="#1aa5de"/><stop offset="1" stop-color="#258eca"/></radialGradient><radialGradient id="GradientFill_7" cx="-14975.72" cy="-1975.74" r="9.74" gradientTransform="matrix(-0.97, -0.26, -0.26, 0.97, -14920.01, -1985.56)" gradientUnits="userSpaceOnUse"><stop offset="0" stop-color="#258eca"/><stop offset="1" stop-color="#24aee4"/></radialGradient><radialGradient id="GradientFill_2" cx="-14991.55" cy="-1977.34" r="69.28" gradientTransform="matrix(-0.97, -0.26, -0.26, 0.97, -14920.01, -1985.56)" gradientUnits="userSpaceOnUse"><stop offset="0" stop-color="#8aceed"/><stop offset="1" stop-color="#29a4dd"/></radialGradient><linearGradient id="linear-gradient-18" x1="-15010" y1="-1951.33" x2="-14981.64" y2="-1951.33" gradientTransform="matrix(-0.97, -0.26, -0.26, 0.97, -14920.01, -1985.56)" gradientUnits="userSpaceOnUse"><stop offset="0" stop-color="#2b357d"/><stop offset="1" stop-color="#2da2db"/></linearGradient><radialGradient id="GradientFill_6" cx="-14976.38" cy="-1981.64" r="10.02" gradientTransform="matrix(-0.97, -0.26, -0.26, 0.97, -14920.01, -1985.56)" gradientUnits="userSpaceOnUse"><stop offset="0" stop-color="#8aceed"/><stop offset="1" stop-color="#1bbdef"/></radialGradient><linearGradient id="linear-gradient-19" x1="-14969.64" y1="-1982.55" x2="-14965.71" y2="-1982.55" gradientTransform="matrix(-0.97, -0.26, -0.26, 0.97, -14920.01, -1985.56)" gradientUnits="userSpaceOnUse"><stop offset="0" stop-color="#2b357d"/><stop offset="0.16" stop-color="#2b3e84"/><stop offset="0.41" stop-color="#2c5598"/><stop offset="0.72" stop-color="#2c7ab9"/><stop offset="1" stop-color="#2da2db"/></linearGradient><radialGradient id="GradientFill_2-2" cx="75.56" cy="45.71" r="9.57" gradientTransform="matrix(1, 0, 0, 1, 0, 0)" xlink:href="#GradientFill_2"/><radialGradient id="GradientFill_2-3" cx="127.7" cy="60.12" r="14" gradientTransform="matrix(1, 0, 0, 1, 0, 0)" xlink:href="#GradientFill_2"/><radialGradient id="GradientFill_2-4" cx="68.9" cy="74.53" r="4.7" gradientTransform="matrix(1, 0, 0, 1, 0, 0)" xlink:href="#GradientFill_2"/><linearGradient id="linear-gradient-20" x1="117.14" y1="74.23" x2="79.49" y2="74.76" gradientTransform="matrix(1, 0, 0, 1, 0, 0)" xlink:href="#linear-gradient-18"/><linearGradient id="linear-gradient-21" x1="117.14" y1="74.31" x2="79.49" y2="74.83" gradientTransform="matrix(1, 0, 0, 1, 0, 0)" xlink:href="#linear-gradient-18"/><linearGradient id="linear-gradient-22" x1="117.14" y1="74.38" x2="79.49" y2="74.9" gradientTransform="matrix(1, 0, 0, 1, 0, 0)" xlink:href="#linear-gradient-18"/><linearGradient id="linear-gradient-23" x1="117.14" y1="74.44" x2="79.49" y2="74.97" gradientTransform="matrix(1, 0, 0, 1, 0, 0)" xlink:href="#linear-gradient-18"/><linearGradient id="linear-gradient-24" x1="117.14" y1="74.51" x2="79.49" y2="75.04" gradientTransform="matrix(1, 0, 0, 1, 0, 0)" xlink:href="#linear-gradient-18"/><linearGradient id="linear-gradient-25" x1="117.14" y1="74.6" x2="79.49" y2="75.12" gradientTransform="matrix(1, 0, 0, 1, 0, 0)" xlink:href="#linear-gradient-18"/><linearGradient id="linear-gradient-26" x1="117.15" y1="74.68" x2="79.49" y2="75.21" gradientTransform="matrix(1, 0, 0, 1, 0, 0)" xlink:href="#linear-gradient-18"/></defs><title>LOT Logo</title><rect class="cls-1" x="91.05" y="28.55" width="22.41" height="13.21"/><path class="cls-2" d="M92.76,30.19h8.55v2.68H95.94v1.31h4.88v2.5H95.94V38h5.54v2.68H92.76Z"/><path class="cls-2" d="M105.7,32.87h-2.89V30.19h9v2.68h-2.9v7.8H105.7Z"/><rect class="cls-1" x="91.04" y="41.9" width="7.37" height="4.9"/><path class="cls-2" d="M92.09,42.5h1.84l2.23,2.76h0V42.5h1.19v3.8H95.52l-2.23-2.76h0V46.3H92.09Z"/><rect class="cls-1" x="98.57" y="41.9" width="7.37" height="4.9"/><path class="cls-2" d="M99.6,43.83a1.9,1.9,0,0,1,.11-.68,1,1,0,0,1,.34-.42,1.18,1.18,0,0,1,.54-.21,3.88,3.88,0,0,1,.72-.06h1.9a4,4,0,0,1,.72.06,1.14,1.14,0,0,1,.53.21,1,1,0,0,1,.34.42,1.7,1.7,0,0,1,.11.68V45a1.64,1.64,0,0,1-.11.68,1,1,0,0,1-.34.42,1.27,1.27,0,0,1-.53.22,5.19,5.19,0,0,1-.72.05h-1.9a5.08,5.08,0,0,1-.72-.05,1.31,1.31,0,0,1-.54-.22,1,1,0,0,1-.34-.42A1.82,1.82,0,0,1,99.6,45Zm1.22.78a1.83,1.83,0,0,0,0,.35.41.41,0,0,0,.1.23.38.38,0,0,0,.21.13,1,1,0,0,0,.34,0H103a1.06,1.06,0,0,0,.34,0,.38.38,0,0,0,.21-.13.49.49,0,0,0,.1-.23,1.83,1.83,0,0,0,0-.35V44.2a1.51,1.51,0,0,0,0-.32.66.66,0,0,0-.11-.24.46.46,0,0,0-.23-.15,1,1,0,0,0-.38-.06h-1.39a1,1,0,0,0-.38.06.44.44,0,0,0-.22.15.53.53,0,0,0-.11.24,1.51,1.51,0,0,0,0,.32Z"/><rect class="cls-1" x="106.11" y="41.9" width="7.37" height="4.9"/><path class="cls-2" d="M106.26,42.5h1.16l.83,2.79h0l1-2.79h1.1l1,2.79h0l.82-2.79h1.16l-1.26,3.8H110.7l-.9-2.51h0l-.91,2.51h-1.36Z"/><path class="cls-3" d="M66.08,57.82a.6.6,0,0,0,.16.41.55.55,0,0,0,.42.17h4v2.1H64.9a1.43,1.43,0,0,1-1.07-.44A1.44,1.44,0,0,1,63.39,59V52.21h2.69Z"/><path class="cls-4" d="M72,53.71a1.46,1.46,0,0,1,.44-1.06,1.42,1.42,0,0,1,1.06-.44h6.38v2.1H75.22a.51.51,0,0,0-.4.17.53.53,0,0,0-.17.41v.62h5.19v1.7H74.65V58.4h5.19v2.1H72Z"/><path class="cls-5" d="M83.8,58.4v2.1H81.11V54.79a2.56,2.56,0,0,1,2.58-2.58h4.24a2.58,2.58,0,0,1,2.59,2.58V60.5H87.83V58.4Zm4-2.09v-.93a1.47,1.47,0,0,0-.14-.7.66.66,0,0,0-.64-.37H84.57a.66.66,0,0,0-.64.37,1.48,1.48,0,0,0-.13.7v.93Z"/><path class="cls-6" d="M98.63,52.21a2.56,2.56,0,0,1,2.58,2.58v3.13a2.56,2.56,0,0,1-2.58,2.58H91.8V53.71a1.46,1.46,0,0,1,.44-1.06,1.44,1.44,0,0,1,1.07-.44ZM98.52,56a3.21,3.21,0,0,0-.19-1.18.91.91,0,0,0-.88-.48H95.07a.53.53,0,0,0-.41.17.57.57,0,0,0-.17.41V58.4h3a.91.91,0,0,0,.88-.48,3.19,3.19,0,0,0,.19-1.17Z"/><path class="cls-7" d="M102.5,53.71a1.42,1.42,0,0,1,.44-1.06,1.4,1.4,0,0,1,1.06-.44h6.37v2.1h-4.61a.53.53,0,0,0-.41.17.57.57,0,0,0-.17.41v.62h5.19v1.7h-5.19V58.4h5.19v2.1H102.5Z"/><path class="cls-8" d="M120,57a2.46,2.46,0,0,1,1.08,2.1V60.5h-2.69v-.44a3.19,3.19,0,0,0-.19-1.17.84.84,0,0,0-.88-.49h-3v2.1h-2.69V53.66a1.4,1.4,0,0,1,.44-1,1.44,1.44,0,0,1,1.07-.44h5.32a2.53,2.53,0,0,1,1.91.75A2.46,2.46,0,0,1,121,54.8,2.41,2.41,0,0,1,120,57Zm-2.44-.66q.6,0,.75-.33a2.11,2.11,0,0,0,.12-.73,1.76,1.76,0,0,0-.1-.64c-.11-.2-.36-.29-.77-.29h-2.62a.53.53,0,0,0-.41.17.51.51,0,0,0-.17.35V56.3Z"/><path class="cls-9" d="M128.25,58.4a.34.34,0,0,0,.29-.11.44.44,0,0,0,.09-.27v-.35a.41.41,0,0,0-.09-.26.34.34,0,0,0-.29-.12h-4.41a1.44,1.44,0,0,1-1.06-.44,1.42,1.42,0,0,1-.44-1.06V53.71a1.42,1.42,0,0,1,.44-1.06,1.4,1.4,0,0,1,1.06-.44h6.79v2.1H124.9a.37.37,0,0,0-.29.11.43.43,0,0,0-.09.26v.37a.38.38,0,0,0,.09.25.34.34,0,0,0,.29.12h4.34a1.51,1.51,0,0,1,1.11.46A1.54,1.54,0,0,1,130.8,57v1.95a1.54,1.54,0,0,1-1.56,1.56h-6.73V58.4Z"/><path class="cls-10" d="M67.11,63.1a1.54,1.54,0,0,1,1.53,1.53v1.85A1.52,1.52,0,0,1,67.11,68h-2.5a1.52,1.52,0,0,1-1.53-1.52V64.63a1.54,1.54,0,0,1,1.53-1.53Zm-.06,2.22a1.78,1.78,0,0,0-.12-.69.52.52,0,0,0-.51-.29H65.3a.54.54,0,0,0-.52.29,2,2,0,0,0-.11.69v.47a2,2,0,0,0,.11.69.53.53,0,0,0,.52.28h1.12a.52.52,0,0,0,.51-.28,1.78,1.78,0,0,0,.12-.69Z"/><path class="cls-11" d="M69.4,64a.89.89,0,0,1,.89-.89h3.76v1.24H71.32a.33.33,0,0,0-.23.1.34.34,0,0,0-.11.25v.61h3.07v1.17H71V68H69.4Z"/><path class="cls-12" d="M77.09,63.1h4.69v1.24H80.23V68H78.71V64.34H77.09Z"/><path class="cls-13" d="M86.58,63.1a1.52,1.52,0,0,1,1.52,1.53v1.85A1.5,1.5,0,0,1,86.58,68H84.07a1.52,1.52,0,0,1-1.53-1.52V64.63a1.54,1.54,0,0,1,1.53-1.53Zm-.07,2.22a1.78,1.78,0,0,0-.11-.69.54.54,0,0,0-.52-.29H84.76a.53.53,0,0,0-.51.29,1.78,1.78,0,0,0-.12.69v.47a1.78,1.78,0,0,0,.12.69.53.53,0,0,0,.51.28h1.12a.53.53,0,0,0,.52-.28,1.78,1.78,0,0,0,.11-.69Z"/><path class="cls-14" d="M90.45,68H88.86V64.63a1.54,1.54,0,0,1,1.53-1.53h1.34a1.45,1.45,0,0,1,1.25.66,1.43,1.43,0,0,1,1.25-.66h1.34a1.47,1.47,0,0,1,1.08.45,1.5,1.5,0,0,1,.44,1.08V68H95.51V65a.78.78,0,0,0-.89-.7.77.77,0,0,0-.88.7v3H92.18V65a.75.75,0,0,0-.86-.7.76.76,0,0,0-.87.7Z"/><path class="cls-15" d="M101.88,63.1a1.52,1.52,0,0,1,1.53,1.53v1.85a1.5,1.5,0,0,1-.44,1.08,1.49,1.49,0,0,1-1.09.44h-2.5a1.52,1.52,0,0,1-1.53-1.52V64.63a1.54,1.54,0,0,1,1.53-1.53Zm-.06,2.22a2,2,0,0,0-.11-.69.54.54,0,0,0-.52-.29h-1.12a.51.51,0,0,0-.51.29,1.78,1.78,0,0,0-.12.69v.47a1.78,1.78,0,0,0,.12.69.51.51,0,0,0,.51.28h1.12a.53.53,0,0,0,.52-.28,2,2,0,0,0,.11-.69Z"/><path class="cls-16" d="M109.09,65.91a1.45,1.45,0,0,1,.64,1.24V68h-1.59v-.25a2,2,0,0,0-.11-.7.5.5,0,0,0-.52-.29h-1.75V68h-1.59V64a.84.84,0,0,1,.26-.6.89.89,0,0,1,.63-.26h3.14a1.46,1.46,0,0,1,1.13.45,1.42,1.42,0,0,1,.39,1.09A1.41,1.41,0,0,1,109.09,65.91Zm-1.44-.39c.24,0,.39-.07.45-.2a1.42,1.42,0,0,0,.07-.42.86.86,0,0,0-.07-.38q-.09-.18-.45-.18H106.1a.37.37,0,0,0-.24.1.29.29,0,0,0-.1.21v.87Z"/><path class="cls-17" d="M115.41,65.91a1.45,1.45,0,0,1,.64,1.24V68h-1.59v-.25a2,2,0,0,0-.11-.7.5.5,0,0,0-.52-.29h-1.75V68h-1.59V64a.84.84,0,0,1,.26-.6.89.89,0,0,1,.63-.26h3.14a1.46,1.46,0,0,1,1.13.45,1.42,1.42,0,0,1,.39,1.09A1.41,1.41,0,0,1,115.41,65.91ZM114,65.52c.24,0,.39-.07.45-.2a1.42,1.42,0,0,0,.07-.42.86.86,0,0,0-.07-.38q-.09-.18-.45-.18h-1.55a.37.37,0,0,0-.24.1.29.29,0,0,0-.1.21v.87Z"/><path class="cls-18" d="M120.84,63.1a1.52,1.52,0,0,1,1.53,1.53v1.85a1.5,1.5,0,0,1-.44,1.08,1.49,1.49,0,0,1-1.09.44h-2.5a1.52,1.52,0,0,1-1.53-1.52V64.63a1.54,1.54,0,0,1,1.53-1.53Zm-.06,2.22a2,2,0,0,0-.11-.69.54.54,0,0,0-.52-.29H119a.51.51,0,0,0-.51.29,1.78,1.78,0,0,0-.12.69v.47a1.78,1.78,0,0,0,.12.69.51.51,0,0,0,.51.28h1.12a.53.53,0,0,0,.52-.28,2,2,0,0,0,.11-.69Z"/><path class="cls-19" d="M129.77,63.1h1.59v3.38a1.47,1.47,0,0,1-.45,1.08,1.43,1.43,0,0,1-1.08.44H128.5a1.45,1.45,0,0,1-1.26-.65A1.43,1.43,0,0,1,126,68h-1.33a1.52,1.52,0,0,1-1.53-1.52V63.1h1.59v3a.77.77,0,0,0,.88.69.77.77,0,0,0,.89-.69v-3H128v3a.89.89,0,0,0,1.73,0Z"/><path class="cls-20" d="M62.68,94.41A77.6,77.6,0,0,1,49.21,80.19,71.77,71.77,0,0,1,36.36,51.54c-2.93-15.08-1.48-31,7.56-45.95q2.94,0,5.9.27c-4.7,6.31-11.5,17.31-4.07,23.37,4.42,3.61,10.92,1.22,15.32-1.11,7-3.71,11.24-6,18.59-8.75,1.5,1.1,2.94,2.27,4.33,3.49-5.84,1.93-8.89,2.86-13.49,5.66A54.1,54.1,0,0,0,62.43,35a33.56,33.56,0,0,0-8.94,15.1C48.78,67.33,56.42,80.6,68.41,91.7A33,33,0,0,1,62.68,94.41Z"/><path class="cls-21" d="M52.56,16.33a5.62,5.62,0,1,1-6.25,4.91A5.61,5.61,0,0,1,52.56,16.33Z"/><path class="cls-22" d="M35.42,30.31a60.58,60.58,0,0,1,8.5-24.72q2.94,0,5.9.27c-4.7,6.31-11.5,17.31-4.07,23.37,4.42,3.61,10.92,1.22,15.32-1.11,7-3.71,11.24-6,18.59-8.75,1.5,1.1,2.94,2.27,4.33,3.49-5.84,1.93-8.89,2.86-13.49,5.66A54.1,54.1,0,0,0,62.43,35a33.56,33.56,0,0,0-8.94,15.1c-4.7,17.25,2.92,30.51,14.9,41.62C47.87,81.74,34,56.43,35.42,30.31Z"/><path class="cls-23" d="M79.66,19.37c1.5,1.1,2.94,2.27,4.33,3.49-5.84,1.93-8.89,2.86-13.49,5.66A54.1,54.1,0,0,0,62.43,35a33.56,33.56,0,0,0-8.94,15.1c-4.7,17.25,2.92,30.51,14.9,41.62-.57-.28-1.13-.57-1.68-.86C53.86,79.74,47.25,63.3,51,47.55,55.08,30.39,64.53,25,79.66,19.37Z"/><path class="cls-24" d="M52.56,16.33a5.52,5.52,0,0,1,3.14,1.45,5.3,5.3,0,0,1-5.09,8.12,5.33,5.33,0,0,1-4.3-3.3,6.18,6.18,0,0,1,0-1.36A5.63,5.63,0,0,1,52.56,16.33Z"/><path class="cls-25" d="M48,5.72c.61,0,1.22.08,1.83.14C46,11,40.7,19.37,43,25.54c-2-4-.49-11.34,4.43-19C47.64,6.25,47.81,6,48,5.72Z"/><path class="cls-26" d="M89.06,46.81h-27c.24-.74.5-1.47.79-2.2h26.2Z"/><path class="cls-27" d="M132.34,44.61H115.4v2.2h16.94a5.48,5.48,0,0,1,5.48,5.47V68a5.49,5.49,0,0,1-5.48,5.48H118.88v2.19h13.46A7.68,7.68,0,0,0,140,68V52.28A7.68,7.68,0,0,0,132.34,44.61Z"/><path class="cls-28" d="M75.45,73.44H62.34c.24.74.51,1.47.79,2.19H75.45Z"/><path class="cls-29" d="M82.34,74.28a.82.82,0,0,1,.8.79v1a.76.76,0,0,1-.24.56.77.77,0,0,1-.56.23h-3.5v-.77h3a.22.22,0,0,0,.26-.26v-.5a.25.25,0,0,0-.06-.19.26.26,0,0,0-.2-.07H79.6a.75.75,0,0,1-.76-.76V73.4a.75.75,0,0,1,.76-.77h3.54v.77h-3a.3.3,0,0,0-.18,0,.24.24,0,0,0-.06.18v.42a.24.24,0,0,0,.06.18.3.3,0,0,0,.18,0Z"/><path class="cls-30" d="M83.91,73.39a.75.75,0,0,1,.76-.76h3.24v.77H85.27a.27.27,0,0,0-.29.29v.68h2.93v.74H85v1h2.93v.74h-4Z"/><path class="cls-31" d="M89.62,75.49v1.35H88.55v-2.9a1.31,1.31,0,0,1,1.31-1.31H92a1.31,1.31,0,0,1,1.31,1.31v2.9H92.26V75.49Zm2.64-.76V74a.59.59,0,0,0-.19-.48.82.82,0,0,0-.53-.15h-1.2a.87.87,0,0,0-.54.15.62.62,0,0,0-.18.48v.7Z"/><path class="cls-32" d="M97.49,74.28a.82.82,0,0,1,.79.79v1a.8.8,0,0,1-.79.79H94v-.77h3a.22.22,0,0,0,.26-.26v-.5a.25.25,0,0,0-.06-.19.26.26,0,0,0-.2-.07H94.74a.75.75,0,0,1-.76-.76V73.4a.75.75,0,0,1,.76-.77h3.54v.77h-3a.3.3,0,0,0-.18,0,.24.24,0,0,0,0,.18v.42a.24.24,0,0,0,0,.18.3.3,0,0,0,.18,0Z"/><path class="cls-33" d="M102.27,72.63a1.3,1.3,0,0,1,1.31,1.31v1.59a1.3,1.3,0,0,1-1.31,1.31h-2.15a1.3,1.3,0,0,1-.93-.38,1.26,1.26,0,0,1-.38-.93V73.94a1.26,1.26,0,0,1,.38-.93,1.3,1.3,0,0,1,.93-.38Zm.24,1.49a.77.77,0,0,0-.18-.54.75.75,0,0,0-.54-.18H100.6a.75.75,0,0,0-.54.18.77.77,0,0,0-.19.54v1.23a.73.73,0,0,0,.19.53.71.71,0,0,0,.54.19h1.19a.71.71,0,0,0,.54-.19.72.72,0,0,0,.18-.53Z"/><path class="cls-34" d="M107.7,72.63A1.3,1.3,0,0,1,109,73.94v2.9h-1.07V74.12a.64.64,0,0,0-.72-.72H106a.72.72,0,0,0-.53.18.77.77,0,0,0-.19.54v2.72h-1.07v-2.9a1.27,1.27,0,0,1,.39-.93,1.3,1.3,0,0,1,.93-.38Z"/><path class="cls-35" d="M114.84,72.63a.73.73,0,0,1,.54.22.77.77,0,0,1,.22.54v.74a.74.74,0,0,1-.21.53.76.76,0,0,1,.21.53v.89a.75.75,0,0,1-.76.76h-2.57a.77.77,0,0,1-.54-.22.74.74,0,0,1-.23-.54v-.89a.73.73,0,0,1,.22-.53.71.71,0,0,1-.22-.53v-.74a.74.74,0,0,1,.23-.54.73.73,0,0,1,.54-.22ZM112.57,74a.31.31,0,0,0,.29.29h1.38a.29.29,0,0,0,.21-.09.24.24,0,0,0,.08-.2v-.27a.27.27,0,0,0-.29-.29h-1.38a.24.24,0,0,0-.2.08.29.29,0,0,0-.09.21Zm2,1.35a.28.28,0,0,0-.08-.21.32.32,0,0,0-.21-.08h-1.38a.28.28,0,0,0-.2.08.29.29,0,0,0-.09.21v.47a.31.31,0,0,0,.29.29h1.38a.29.29,0,0,0,.21-.09.24.24,0,0,0,.08-.2Z"/></svg>