<?xml version="1.0" encoding="UTF-8"?>
<svg width="107px" height="38px" viewBox="0 0 107 38" version="1.1" xmlns="http://www.w3.org/2000/svg" xmlns:xlink="http://www.w3.org/1999/xlink">
    <title>BD500D42-46C1-470C-BC32-B6408F1C42D1@3x</title>
    <g id="Final-UI" stroke="none" stroke-width="1" fill="none" fill-rule="evenodd">
        <g id="schedule---LOT-event" transform="translate(-499.000000, -686.000000)" fill-rule="nonzero">
            <g id="Group-4" transform="translate(380.000000, 598.000000)">
                <g id="Group-25" transform="translate(97.000000, 50.000000)">
                    <g id="Group-11">
                        <g id="Group-26" transform="translate(21.000000, 10.000000)">
                            <g id="Logos-01" transform="translate(1.000000, 28.000000)">
                                <rect id="Rectangle" fill="#9C1C26" x="0.61" y="0.33" width="105.79" height="37.34"></rect>
                                <path d="M31.74,6.55 L6.84,6.55 L6.84,31.45 L31.74,31.45 L31.74,6.55 Z M8.64,8.35 L29.94,8.35 L29.94,29.65 L8.64,29.65 L8.64,8.35 Z" id="Shape" fill="#FFFFFF"></path>
                                <rect id="Rectangle" fill="#FFFFFF" x="10.99" y="10.7" width="16.59" height="4.15"></rect>
                                <rect id="Rectangle" fill="#FFFFFF" x="10.99" y="23.15" width="4.15" height="4.15"></rect>
                                <rect id="Rectangle" fill="#FFFFFF" x="10.99" y="16.91" width="10.36" height="4.16"></rect>
                                <rect id="Rectangle" fill="#FFFFFF" x="37.95" y="10.69" width="1.72" height="8.33"></rect>
                                <g id="Group" transform="translate(38.000000, 10.000000)" fill="#FFFFFF">
                                    <path d="M6.76,0.69 C9.38,0.69 10.32,1.83 10.32,4.82 C10.32,7.81 9.32,9.02 6.75,9.02 L3.29,9.02 L3.29,0.69 L6.76,0.69 Z M5,2.12 L5,7.59 L6.52,7.59 C8.2,7.59 8.58,6.95 8.58,4.83 C8.58,2.71 8.34,2.12 6.34,2.12 L5,2.12 Z" id="Shape"></path>
                                    <polygon id="Path" points="11.66 0.69 17.51 0.69 17.51 2.12 13.38 2.12 13.38 4.07 16.99 4.07 16.99 5.5 13.38 5.5 13.38 9.02 11.66 9.02"></polygon>
                                    <path d="M25.53,6.28 C25.41,7.9 24.53,9.21 21.94,9.21 C19.35,9.21 18.16,8 18.16,4.9 C18.16,1.8 19.36,0.51 21.95,0.51 C23.95,0.51 25.25,1.38 25.53,3.28 L23.81,3.28 C23.61,2.54 23.37,2 22,2 C20.63,2 20,2.85 20,5.08 C20,6.81 20.47,7.77 22.07,7.77 C23.22,7.77 23.77,7.41 23.91,6.31 L25.53,6.28 Z" id="Path"></path>
                                    <polygon id="Path" points="30.1 0.69 35.95 0.69 35.95 2.12 31.82 2.12 31.82 4.07 35.43 4.07 35.43 5.5 31.82 5.5 31.82 9.02 30.1 9.02"></polygon>
                                    <rect id="Rectangle" x="37.07" y="0.69" width="1.72" height="8.33"></rect>
                                    <path d="M40.4,0.69 L44,0.69 C45.73,0.69 47.24,0.74 47.24,3.19 C47.24,4.82 46.57,5.42 45.62,5.64 L47.8,9 L45.71,9 L43.71,5.72 L42.16,5.72 L42.16,9 L40.4,9 L40.4,0.69 Z M42.12,2.12 L42.12,4.32 L43.67,4.32 C45.05,4.32 45.51,4.18 45.51,3.13 C45.51,2.3 45.22,2.13 43.77,2.13 L42.12,2.12 Z" id="Shape"></path>
                                    <path d="M50,6.41 C50.07,7.28 50.2,7.74 51.85,7.74 C52.72,7.74 53.36,7.61 53.36,6.74 C53.36,6.23 53.13,5.95 52.36,5.74 L50.36,5.19 C49.2184385,5.06896365 48.3781486,4.06503832 48.46,2.92 C48.46,1.72 49.01,0.47 51.58,0.47 C54.15,0.47 54.8,1.61 54.84,3.09 L53.1,3.09 C53,2.44 53,2 51.49,2 C50.62,2 50.18,2.16 50.18,2.83 C50.18,3.5 50.54,3.6 51.03,3.73 L52.89,4.23 C54.07,4.54 55.07,5.01 55.07,6.67 C55.07,9.02 53.07,9.24 51.82,9.24 C49.1,9.24 48.36,8.17 48.25,6.44 L50,6.41 Z" id="Path"></path>
                                    <polygon id="Path" points="57.99 2.16 55.48 2.16 55.48 0.69 62.2 0.69 62.2 2.16 59.7 2.16 59.7 9.02 57.99 9.02"></polygon>
                                    <path d="M4,13.14 C5.63,13.14 6.53,13.72 6.53,15.3 C6.53,16.59 5.94,16.86 5.53,17.01 C6.37820855,17.3152694 6.90437513,18.1645934 6.8,19.06 C6.8,20.43 6.18,21.47 3.88,21.47 L0,21.47 L0,13.14 L4,13.14 Z M1.65,14.57 L1.65,16.42 L3.6,16.42 C4.6,16.42 4.89,16.29 4.89,15.42 C4.89,14.72 4.73,14.56 3.27,14.56 L1.65,14.57 Z M1.65,17.84 L1.65,20 L3.2,20 C4.76,20 5.11,19.88 5.11,18.93 C5.11,17.98 4.79,17.8 3.53,17.8 L1.65,17.84 Z" id="Shape"></path>
                                    <path d="M8,17.21 C8.08,15.63 9,15.21 10.64,15.21 C12.28,15.21 13.23,15.66 13.23,17 L13.23,21.48 L11.69,21.48 L11.69,21 C11.1753367,21.4565414 10.4952809,21.6808151 9.81,21.62 C8.35,21.62 7.81,20.97 7.81,19.92 C7.74733112,18.8792341 8.53933457,17.984315 9.58,17.92 L11.58,17.61 L11.58,17.24 C11.58,16.67 11.29,16.51 10.58,16.51 C9.87,16.51 9.58,16.69 9.58,17.22 L8,17.21 Z M11.61,18.65 L10.49,18.83 C9.87,18.93 9.43,19.05 9.43,19.7 C9.43,20.17 9.66,20.42 10.43,20.42 C11.43,20.42 11.66,19.89 11.66,19.13 L11.61,18.65 Z" id="Shape"></path>
                                    <path d="M18.6,18 C18.6,17.06 18.6,16.57 17.6,16.57 C16.6,16.57 16.32,17.17 16.32,18.57 L16.32,21.48 L14.67,21.48 L14.67,15.35 L16.2,15.35 L16.2,16.14 C16.6466876,15.486943 17.4121485,15.1271763 18.2,15.2 C19.77,15.2 20.2,15.87 20.2,17.73 L20.2,21.47 L18.6,21.47 L18.6,18 Z" id="Path"></path>
                                    <polygon id="Path" points="21.77 13.14 23.39 13.14 23.39 17.61 25.38 15.35 27.36 15.35 25.22 17.67 27.44 21.47 25.57 21.47 24.08 18.81 23.39 19.53 23.39 21.47 21.77 21.47"></polygon>
                                </g>
                            </g>
                        </g>
                    </g>
                </g>
            </g>
        </g>
    </g>
</svg>