<?xml version="1.0" encoding="UTF-8"?>
<svg width="111px" height="18px" viewBox="0 0 111 18" version="1.1" xmlns="http://www.w3.org/2000/svg" xmlns:xlink="http://www.w3.org/1999/xlink">
    <title>59922E89-9921-4E3E-A890-330FB7D8BD7A@3x</title>
    <g id="Final-UI" stroke="none" stroke-width="1" fill="none" fill-rule="evenodd">
        <g id="schedule---LOT-event" transform="translate(-845.000000, -791.000000)" fill-rule="nonzero">
            <g id="Group-4" transform="translate(380.000000, 598.000000)">
                <g id="Group-32" transform="translate(271.000000, 143.000000)">
                    <g id="Group-24" transform="translate(174.000000, 0.000000)">
                        <g id="Group-34" transform="translate(20.000000, 16.000000)">
                            <g id="Logos-07" transform="translate(0.000000, 34.000000)">
                                <rect id="Rectangle" fill="#B72025" x="0.85" y="0.74" width="16.5" height="16.52"></rect>
                                <rect id="Rectangle" fill="#005995" x="17.35" y="0.74" width="16.5" height="16.52"></rect>
                                <path d="M21.2,12.32 L21.57,12.69 L22.57,11.69 C22.4493039,11.5612669 22.3420802,11.4205357 22.25,11.27 L21.2,12.32 Z" id="Path" fill="#F9AC1B"></path>
                                <path d="M22,13.07 L22.37,13.44 L23.47,12.34 C23.3037134,12.2405967 23.1464466,12.1268292 23,12 L22,13.07 Z" id="Path" fill="#F9AC1B"></path>
                                <path d="M28.89,13.43 L29.26,13.06 L28.26,12.01 C28.1288973,12.1308753 27.9884615,12.2412177 27.84,12.34 L28.89,13.43 Z" id="Path" fill="#F9AC1B"></path>
                                <path d="M28.59,11.63 L29.59,12.63 L29.96,12.26 L28.86,11.16 C28.7866864,11.3256789 28.6961909,11.483208 28.59,11.63 Z" id="Path" fill="#F9AC1B"></path>
                                <path d="M30,5.73 L29.62,5.36 L28.57,6.36 C28.6884995,6.49310802 28.7987072,6.63337237 28.9,6.78 L30,5.73 Z" id="Path" fill="#F9AC1B"></path>
                                <path d="M29.25,5 L28.88,4.63 L27.78,5.73 C27.9259732,5.82859037 28.0662012,5.93543073 28.2,6.05 L29.25,5 Z" id="Path" fill="#F9AC1B"></path>
                                <path d="M22.32,4.61 L22,5 L23,6 C23.1337988,5.88543073 23.2740268,5.77859037 23.42,5.68 L22.32,4.61 Z" id="Path" fill="#F9AC1B"></path>
                                <path d="M21.57,5.36 L21.2,5.73 L22.3,6.83 C22.3945677,6.68118184 22.5016201,6.54067557 22.62,6.41 L21.57,5.36 Z" id="Path" fill="#F9AC1B"></path>
                                <path d="M21.69,8.39 L18.3,9 L21.69,9.64 C21.6546956,9.43846386 21.6346388,9.23455243 21.63,9.03 C21.6346495,8.81550519 21.6547011,8.60162144 21.69,8.39 Z" id="Path" fill="#F9AC1B"></path>
                                <path d="M25,12.94 L25.62,16.34 L26.22,13 C26.0136001,13.0148494 25.8063999,13.0148494 25.6,13 C25.3986148,12.9978624 25.1978207,12.977783 25,12.94 L25,12.94 Z" id="Path" fill="#F9AC1B"></path>
                                <path d="M29.52,9.64 L32.9,9 L29.51,8.36 C29.5502265,8.5709513 29.5703168,8.78524777 29.57,9 C29.5702098,9.21431704 29.5534912,9.42831585 29.52,9.64 Z" id="Path" fill="#F9AC1B"></path>
                                <path d="M26.22,5.11 L25.6,1.72 L25,5.11 C25.2130605,5.09474242 25.4269395,5.09474242 25.64,5.11 C25.833115,5.09700695 26.026885,5.09700695 26.22,5.11 L26.22,5.11 Z" id="Path" fill="#F9AC1B"></path>
                                <path d="M44.65,11.11 L41,4.63 L40.61,4.63 L40,11.41 C39.92,12.33 39.77,12.72 39.24,12.84 L39.24,13.1 C39.6,13.1 39.95,13.1 40.31,13.1 C40.67,13.1 41.03,13.1 41.38,13.1 L41.38,12.84 C40.88,12.75 40.7,12.42 40.7,11.84 C40.7,11.59 40.7,11.23 40.7,11.07 L41,7.48 L41,7.48 L44.39,13.14 L47.08,7.61 L47.08,7.61 L47.39,11.21 C47.4074028,11.4797196 47.4074028,11.7502804 47.39,12.02 C47.39,12.41 47.24,12.79 46.85,12.84 L46.85,13.1 C47.27,13.1 47.67,13.1 48.09,13.1 C48.51,13.1 48.91,13.1 49.33,13.1 L49.33,12.84 C48.84,12.84 48.71,12.28 48.66,11.68 L48.13,4.68 L47.77,4.68 L44.65,11.11 Z" id="Path" fill="#005995"></path>
                                <path d="M67.3,6.46 C67.3,5.90771525 67.7477153,5.46 68.3,5.46 L72.3,5.46 L66.7,13.04 L72.77,13.04 C73.212049,13.0065035 73.6560277,13.0713927 74.07,13.23 L74.39,11.57 L73.95,11.52 C73.72,12.13 73.22,12.32 71.33,12.32 C70.48,12.32 69.62,12.27 68.76,12.26 L74.56,4.8 L67.48,4.8 C67.266927,4.79821796 67.0550491,4.7679497 66.85,4.71 L66.85,6.4 L67.3,6.46 Z" id="Path" fill="#005995"></path>
                                <path d="M110.05,5.1 C109.322405,4.75831882 108.523155,4.59709686 107.72,4.63 C107.000381,4.58610662 106.294294,4.83955283 105.766858,5.33107049 C105.239422,5.82258816 104.936886,6.50907615 104.93,7.23 C104.93,10.35 109,9.13 109,11.23 C109.000736,11.6492182 108.828299,12.0501274 108.523469,12.3379173 C108.218638,12.6257073 107.808483,12.7748228 107.39,12.75 C106.561154,12.748916 105.828653,12.2106699 105.58,11.42 L105.16,11.42 L105.27,12.7 C105.926073,13.0503309 106.656333,13.2388956 107.4,13.25 C108.090502,13.3078382 108.774659,13.0810651 109.293906,12.6222396 C109.813153,12.1634142 110.12241,11.5123706 110.15,10.82 C110.15,7.59 106.09,9.14 106.09,6.62 C106.122251,5.78747721 106.806853,5.12937556 107.64,5.13 C108.523097,5.027173 109.357494,5.55701494 109.64,6.4 L110.1,6.4 L110.05,5.1 Z" id="Path" fill="#005995"></path>
                                <path d="M59.2,10.68 L59.61,11.79 C59.694408,11.9832957 59.7451392,12.1896025 59.76,12.4 C59.7747459,12.5135494 59.7388472,12.6278422 59.6618242,12.7125675 C59.5848012,12.7972927 59.4744368,12.8438894 59.36,12.84 L59.36,13.1 C59.77,13.1 60.16,13.1 60.57,13.1 C60.98,13.1 61.37,13.1 61.77,13.1 L61.77,12.84 C61.34,12.79 61.24,12.4 60.77,11.34 L58.16,4.63 L58.01,4.63 L55.47,11.05 C55.25,11.62 54.79,12.75 54.31,12.84 L54.31,13.1 C54.66,13.1 54.99,13.1 55.31,13.1 C55.63,13.1 55.99,13.1 56.31,13.1 L56.31,12.84 C56.02,12.84 55.88,12.61 55.88,12.33 C55.8814502,12.12744 55.908327,11.9258636 55.96,11.73 L56.28,10.73 L59.2,10.68 Z M56.62,10.11 L57.78,7 L59,10.11 L56.62,10.11 Z" id="Shape" fill="#005995"></path>
                                <path d="M84,10.68 L84.42,11.79 C84.4971655,11.9851085 84.5443664,12.1907694 84.56,12.4 C84.56,12.67 84.42,12.84 84.17,12.84 L84.17,13.1 C84.57,13.1 84.96,13.1 85.37,13.1 C85.78,13.1 86.17,13.1 86.58,13.1 L86.58,12.84 C86.15,12.79 86.04,12.4 85.58,11.34 L83,4.63 L82.85,4.63 L80.31,11.05 C80.09,11.62 79.63,12.75 79.16,12.84 L79.16,13.1 C79.5,13.1 79.84,13.1 80.16,13.1 C80.48,13.1 80.84,13.1 81.16,13.1 L81.16,12.84 C80.87,12.84 80.73,12.61 80.73,12.33 C80.7314502,12.12744 80.758327,11.9258636 80.81,11.73 L81.13,10.73 L84,10.68 Z M81.42,10.11 L82.53,7 L83.73,10.14 L81.42,10.11 Z" id="Shape" fill="#005995"></path>
                                <path d="M94.23,5.54 C94.23,5.24 94.56,5.2 94.87,5.2 C96.17,5.2 96.67,6.2 96.67,7.28 C96.6597781,7.7955726 96.4415182,8.28510538 96.0648453,8.63729448 C95.6881725,8.98948358 95.1850963,9.17440009 94.67,9.15 L94.21,9.15 L94.23,5.54 Z M92.3,13.1 C92.73,13.1 93.13,13.1 93.56,13.1 C93.99,13.1 94.41,13.1 94.84,13.1 L94.84,12.84 C94.23,12.71 94.17,12.35 94.17,11.84 L94.17,9.49 C94.46,9.49 94.71,9.8 94.89,10 L96.89,12.32 C96.995176,12.4188556 97.0563975,12.5557037 97.06,12.7 C97.06,12.78 97.06,12.83 96.93,12.84 L96.93,13.1 C97.33,13.1 97.72,13.1 98.11,13.1 C98.5,13.1 98.91,13.1 99.31,13.1 L99.31,12.84 C98.9485675,12.7087868 98.6326206,12.4761667 98.4,12.17 L96,9.38 C97.1449366,9.21009308 98.0318257,8.29035628 98.16,7.14 C98.16,5.85 97.16,4.77 94.96,4.77 C94.07,4.77 93.71,4.77 93.35,4.77 C92.99,4.77 92.58,4.77 92.2,4.77 L92.2,5 C92.8,5.12 92.86,5.41 92.86,6 C92.86,7 92.92,8 92.92,9.06 L92.92,12.13 C92.9337917,12.2998565 92.8792711,12.4681992 92.7685208,12.5977207 C92.6577706,12.7272422 92.4999375,12.8072453 92.33,12.82 L92.3,13.1 Z" id="Shape" fill="#005995"></path>
                                <path d="M9.24,11.44 L12.58,4.62 L12.78,4.62 L13.12,11.71 C13.17,12.71 13.24,12.78 13.77,12.86 L13.77,13.08 C13.42,13.08 13.07,13.08 12.65,13.08 C12.23,13.08 11.95,13.08 11.65,13.08 L11.65,12.86 C12.15,12.86 12.24,12.48 12.24,12.05 C12.24,11.62 12.24,11.22 12.24,11.05 L12,6.8 L12,6.8 L9,12.8 L5.57,6.8 L5.51,6.8 L5.29,10.54 C5.29,10.85 5.29,11.4 5.29,11.71 C5.29,12.54 5.62,12.83 6.03,12.87 L6.03,13.09 C5.7,13.09 5.35,13.09 5.03,13.09 C4.71,13.09 4.36,13.09 4.03,13.09 L4.03,12.87 C4.66,12.73 4.76,12.53 4.83,11.49 L5.28,4.63 L5.49,4.63 L9.24,11.44 Z" id="Path" fill="#F9AC1B"></path>
                            </g>
                        </g>
                    </g>
                </g>
            </g>
        </g>
    </g>
</svg>