<?xml version="1.0" encoding="UTF-8"?>
<svg width="89px" height="13px" viewBox="0 0 89 13" version="1.1" xmlns="http://www.w3.org/2000/svg" xmlns:xlink="http://www.w3.org/1999/xlink">
    <title>6B598C65-F567-441F-9E94-B5E796F1F918@3x</title>
    <g id="Final-UI" stroke="none" stroke-width="1" fill="none" fill-rule="evenodd">
        <g id="schedule---LOT-event" transform="translate(-682.000000, -788.000000)">
            <g id="Group-4" transform="translate(380.000000, 598.000000)">
                <g id="Group-32" transform="translate(271.000000, 143.000000)">
                    <g id="Group-22" transform="translate(0.000000, 2.000000)">
                        <g id="Group-33" transform="translate(27.000000, 13.000000)">
                            <g id="Logos-06" transform="translate(4.000000, 32.000000)">
                                <path d="M0.116999997,12.2759997 L0.116999997,0.296999992 L3.27599991,0.296999992 L7.77599979,6.45299983 C7.85699979,6.57899983 8.00099979,6.83099982 8.19899978,7.20899981 C8.39699978,7.5869998 8.62199977,8.04599979 8.85599977,8.56799977 C8.79299977,8.07299979 8.74799977,7.6679998 8.71199977,7.24499981 C8.67599977,6.82199982 8.71199977,6.51599983 8.71199977,6.20999984 L8.71199977,0.296999992 L11.8529997,0.296999992 L11.8529997,12.2759997 L8.71199977,12.2759997 L4.21199989,6.08399984 C4.05113063,5.8403502 3.90390435,5.5879623 3.7709999,5.32799986 C3.57299991,4.94999987 3.35699991,4.50899988 3.12299992,3.99599989 C3.18599992,4.49099988 3.23099991,4.94099987 3.26699991,5.32799986 C3.30299991,5.71499985 3.26699991,6.05699984 3.26699991,6.36299983 L3.26699991,12.2759997 L0.116999997,12.2759997 Z" id="Path" fill="#B92A30"></path>
                                <path d="M13.0139997,12.2759997 L17.1539995,0.296999992 L21.2579994,0.296999992 L25.4069993,12.2759997 L22.1489994,12.2759997 L21.5369994,10.1249997 L16.8929996,10.1249997 L16.2719996,12.2759997 L13.0139997,12.2759997 Z M17.5949995,7.77599979 L20.8529994,7.77599979 L19.6289995,3.8249999 C19.6289995,3.7079999 19.5389995,3.50999991 19.4759995,3.24899991 C19.4129995,2.98799992 19.3229995,2.63699993 19.2239995,2.21399994 C19.1519995,2.51099993 19.0799995,2.78999993 19.0079995,3.05999992 C18.9359995,3.32999991 18.8729995,3.58199991 18.8009995,3.8249999 L17.5949995,7.77599979 Z" id="Shape" fill="#B92A30"></path>
                                <path d="M27.0809993,8.40599978 C27.4924452,8.89089271 27.9785418,9.3071129 28.5209992,9.63899974 C28.9483722,9.89548629 29.4356473,10.0351511 29.9339992,10.0439997 C30.324558,10.0611439 30.7081429,9.93647884 31.0139992,9.69299974 C31.2882562,9.47587192 31.4448405,9.14271381 31.4369992,8.79299977 C31.4539664,8.4548594 31.322486,8.12615851 31.0769992,7.89299979 C30.5758798,7.55546375 30.0131617,7.31997846 29.4209992,7.19999981 C28.4941485,7.01561518 27.6334378,6.58681344 26.9279993,5.95799984 C26.4181961,5.38951927 26.1558581,4.64137004 26.1989993,3.8789999 C26.164795,2.82151106 26.583968,1.79977678 27.3509993,1.07099997 C28.1677197,0.335484767 29.2410044,-0.0492166496 30.3389992,6.39592546e-15 C30.9751333,-0.00159479562 31.6083318,0.0862652925 32.2199991,0.260999993 C32.8188299,0.444088963 33.3863222,0.71721361 33.9029991,1.07099997 L32.8769991,3.41999991 C32.5368425,3.12056922 32.1509646,2.87749651 31.7339992,2.69999993 C31.3737054,2.55259971 30.9892109,2.47325958 30.5999992,2.46599993 C30.2557255,2.45081011 29.9164054,2.55228901 29.6369992,2.75399993 C29.4069785,2.9220727 29.270114,3.18912535 29.2679992,3.47399991 C29.2593444,3.75109161 29.3788726,4.01670985 29.5919992,4.19399989 C29.9702245,4.44929788 30.3954891,4.62674642 30.8429992,4.71599988 L30.9869992,4.71599988 C31.9457675,4.89496828 32.8472448,5.30248542 33.6149991,5.90399984 C33.9067282,6.205839 34.1280222,6.56851527 34.2629991,6.96599982 C34.4199239,7.40468924 34.4961526,7.86815931 34.4879991,8.33399978 C34.5382727,9.48781501 34.0811888,10.6058621 33.2369991,11.3939997 C32.3157872,12.2205504 31.1075101,12.6534625 29.8709992,12.5999997 C29.0888146,12.608158 28.3124746,12.4645046 27.5849993,12.1769997 C26.8467989,11.8421456 26.1758295,11.3755168 25.6049993,10.7999997 L27.0809993,8.40599978 Z" id="Path" fill="#B92A30"></path>
                                <path d="M36.836999,8.40599978 C37.248445,8.89089271 37.7345416,9.3071129 38.276999,9.63899974 C38.7043719,9.89548629 39.191647,10.0351511 39.6899989,10.0439997 C40.0805578,10.0611439 40.4641427,9.93647884 40.7699989,9.69299974 C41.0477405,9.4786516 41.205204,9.14362283 41.1929989,8.79299977 C41.2099661,8.4548594 41.0784858,8.12615851 40.8329989,7.89299979 C40.3318795,7.55546375 39.7691614,7.31997846 39.176999,7.19999981 C38.2508556,7.01354898 37.3906608,6.58500426 36.683999,5.95799984 C36.194959,5.38704716 35.9493724,4.6470559 35.999999,3.8969999 C35.9657947,2.83951106 36.3849678,1.81777678 37.151999,1.08899997 C37.9546233,0.358029258 39.0098856,-0.0324500923 40.0949989,-2.16840434e-19 C40.7311736,-0.00219507094 41.364456,0.0856766547 41.9759989,0.260999993 C42.5748296,0.444088963 43.1423219,0.71721361 43.6589988,1.07099997 L42.6419989,3.41999991 C42.2989917,3.12440313 41.9137374,2.88172325 41.4989989,2.69999993 C41.1303106,2.548048 40.7366786,2.46565992 40.3379989,2.45699993 C39.9937252,2.44181011 39.6544052,2.54328901 39.374999,2.74499993 C39.1449782,2.9130727 39.0081138,3.18012535 39.005999,3.46499991 C38.9973441,3.74209161 39.1168723,4.00770985 39.329999,4.18499989 C39.7082243,4.44029788 40.1334889,4.61774642 40.5809989,4.70699988 L40.7249989,4.70699988 C41.684414,4.88390679 42.5863648,5.291638 43.3529989,5.89499984 C43.6445709,6.19860609 43.8684902,6.56055772 44.0099988,6.95699982 C44.1594898,7.39734414 44.2325436,7.86001823 44.2259988,8.32499978 C44.2762725,9.47881501 43.8191885,10.5968621 42.9749989,11.3849997 C42.0529327,12.2170377 40.840822,12.6533976 39.599999,12.5999997 C38.8206573,12.6090608 38.0470895,12.4653545 37.322999,12.1769997 C36.5902972,11.841839 35.9252922,11.3751153 35.3609991,10.7999997 L36.836999,8.40599978 Z" id="Path" fill="#B92A30"></path>
                                <path d="M54.7649985,0.75599998 L54.7649985,4.35599988 C54.3862117,3.91624906 53.9321188,3.54748904 53.4239986,3.26699991 C52.9827073,3.03519219 52.4914674,2.91469939 51.9929986,2.91599992 C51.1256449,2.88073623 50.2876749,3.23373935 49.7069987,3.8789999 C49.098711,4.56759371 48.7767272,5.46270847 48.8069987,6.38099983 C48.7813088,7.26616941 49.1045439,8.1259748 49.7069987,8.77499977 C50.2918425,9.40161342 51.1182527,9.74595101 51.9749986,9.71999974 C52.4734674,9.72130028 52.9647073,9.60080747 53.4059986,9.36899975 C53.9162987,9.0879604 54.3707997,8.71581862 54.7469985,8.27099978 L54.7469985,11.8709997 C54.2495263,12.1123341 53.7275188,12.299412 53.1899986,12.4289997 C52.0856105,12.710144 50.9283868,12.710144 49.8239987,12.4289997 C49.2783088,12.2822656 48.7611222,12.0449682 48.2939987,11.7269997 C47.4264515,11.1599139 46.7197178,10.3787873 46.2419988,9.45899975 C45.4034073,7.71047827 45.3124306,5.6959931 45.9899988,3.8789999 C46.2911886,3.09785076 46.7543431,2.38931648 47.3489987,1.79999995 C47.8902398,1.23000656 48.5468528,0.782036987 49.2749987,0.485999987 C50.0280489,0.171649364 50.8349977,0.00659166018 51.6509986,-9.47980223e-06 C52.1757743,-0.00090202772 52.6986792,0.0625719699 53.2079986,0.188999995 C53.7446166,0.325577267 54.2662165,0.515524059 54.7649985,0.75599998 L54.7649985,0.75599998 Z" id="Path" fill="#B92A30"></path>
                                <path d="M62.5229983,9.82799974 C63.3841948,9.8459363 64.2087383,9.47983899 64.7729983,8.82899977 C65.9611591,7.36245393 65.9611591,5.26454574 64.7729983,3.7979999 C64.2024704,3.15402221 63.3833525,2.78537295 62.5229983,2.78537295 C61.6626442,2.78537295 60.8435263,3.15402221 60.2729984,3.7979999 C59.0955621,5.27506458 59.0955621,7.36993508 60.2729984,8.84699977 C60.8430141,9.49941812 61.6750235,9.86259682 62.5409983,9.83699974 L62.5229983,9.82799974 Z M68.9310911,6.29999983 C68.9355438,7.13078259 68.7733423,7.95403172 68.4539982,8.72099977 C68.1422192,9.50316805 67.6700847,10.2113698 67.0679982,10.7999997 C66.4599351,11.3798981 65.7486844,11.8408374 64.9709983,12.1589997 C63.3946623,12.7946274 61.6333343,12.7946274 60.0569984,12.1589997 C59.2852024,11.8448947 58.5820767,11.3832774 57.9869985,10.7999997 C57.3825806,10.2270671 56.9043862,9.53429833 56.5829985,8.76599977 C55.5765192,6.41074467 56.1359286,3.67824499 57.9869985,1.90799995 C58.5803007,1.32252151 59.2838893,0.860600293 60.0569984,0.548999985 C62.456972,-0.425766797 65.2060531,0.107110279 67.0679982,1.90799995 C68.2584164,3.05911491 68.9307158,4.64405266 68.9310911,6.29999983 Z" id="Shape" fill="#B92A30"></path>
                                <path d="M84.7529978,12.2759997 L81.6929978,12.2759997 L80.9999979,7.09199981 C80.9999979,6.73199982 80.9099979,6.32699983 80.8739979,5.87699984 C80.8379979,5.42699986 80.7929979,4.97699987 80.7569979,4.40999988 C80.6518637,5.05279892 80.5014901,5.6873757 80.3069979,6.30899983 C80.2589979,6.47099983 80.2229979,6.58799983 80.1989979,6.65999982 L78.5699979,12.2759997 L76.391998,12.2759997 L74.6999981,6.65999982 L74.600998,6.30899983 C74.4066569,5.69038869 74.2562822,5.05881507 74.150998,4.41899988 C74.150998,4.86899987 74.078998,5.31899986 74.042998,5.75999985 C74.006998,6.20099984 73.943998,6.65999982 73.880998,7.09199981 L73.1789981,12.2759997 L70.1999981,12.2759997 L71.9999981,0.296999992 L75.239998,0.296999992 L77.039998,6.47099983 C77.039998,6.51599983 77.039998,6.58799983 77.102998,6.68699982 C77.2543114,7.14700873 77.3627729,7.62002156 77.4269979,8.09999979 C77.4527251,7.86100564 77.491786,7.62363569 77.5439979,7.3889998 C77.6069979,7.13699981 77.6879979,6.82199982 77.7959979,6.48899983 L79.5959979,0.332999991 L82.8449978,0.332999991 L84.7529978,12.2759997 Z" id="Path" fill="#B92A30"></path>
                                <path d="M86.2109977,2.07899994 L86.6789977,2.07899994 C86.8346199,2.09461688 86.991353,2.06327026 87.1289977,1.98899995 C87.2028657,1.91849756 87.2450675,1.82110876 87.2459977,1.71899995 C87.2449795,1.65234032 87.2263496,1.58713568 87.1919977,1.52999996 C87.1483614,1.47835697 87.0927412,1.43818683 87.0299977,1.41299996 C86.9018388,1.39216725 86.7711566,1.39216725 86.6429977,1.41299996 L86.2109977,1.41299996 L86.2109977,2.12399994 L86.2109977,2.07899994 Z M85.8329977,3.41099991 L85.8329977,1.05299997 L86.6429977,1.05299997 C86.8460478,1.0426298 87.049476,1.0638835 87.2459977,1.11599997 C87.3646363,1.1607673 87.4677851,1.23891032 87.5429977,1.34099996 C87.6135606,1.44443631 87.6512071,1.56678751 87.6509977,1.69199996 C87.6510219,1.86130189 87.5829034,2.02348859 87.4619977,2.14199994 C87.3348447,2.27415664 87.1593914,2.34888675 86.9759977,2.34899994 C87.0472144,2.38217767 87.1137802,2.42453774 87.1739977,2.47499993 C87.3076023,2.61782711 87.4252929,2.77474793 87.5249977,2.94299992 L87.8129977,3.41099991 L87.3449977,3.41099991 L87.1379977,3.03299992 C87.0367376,2.82967884 86.9029802,2.64424253 86.7419977,2.48399993 C86.6516126,2.42423552 86.544114,2.39577999 86.4359977,2.40299994 L86.2109977,2.40299994 L86.2109977,3.41099991 L85.8329977,3.41099991 Z M86.7959977,0.36899999 L86.7959977,0.36899999 C87.1121315,0.369560994 87.422542,0.45337183 87.6959977,0.611999984 C87.9880455,0.761225268 88.2269174,0.996954152 88.3799977,1.28699997 C88.5398497,1.56039932 88.6266342,1.87034378 88.6319977,2.18699994 C88.6255537,2.50232027 88.5421329,2.81128623 88.3889977,3.08699992 C88.2314525,3.37062375 87.9976215,3.60445477 87.7139977,3.7619999 C87.1570758,4.08353892 86.4709196,4.08353892 85.9139977,3.7619999 C85.6303739,3.60445477 85.3965429,3.37062375 85.2389977,3.08699992 C84.9174587,2.53007799 84.9174587,1.84392189 85.2389977,1.28699997 C85.3948282,0.999007879 85.632967,0.764002493 85.9229977,0.611999984 C86.1974046,0.455668039 86.5071977,0.372023915 86.8229977,0.36899999 L86.7959977,0.36899999 Z M86.7959977,0.00899999976 C87.1708603,0.00983210635 87.5393739,0.105831451 87.8669977,0.287999992 C88.2145641,0.470423063 88.4997453,0.752470393 88.6859977,1.09799997 C88.8789302,1.4318894 88.981309,1.81038059 88.9829976,2.19599994 C88.9801045,2.57744324 88.8810494,2.95199525 88.6949977,3.28499991 C88.5069633,3.62611643 88.2261142,3.90696557 87.8849977,4.09499989 C87.5536953,4.28522894 87.1780263,4.38457939 86.7959977,4.38299988 C86.4138043,4.38587611 86.0378023,4.28643756 85.7069977,4.09499989 C85.3621043,3.91203224 85.0799654,3.62989338 84.8969978,3.28499991 C84.704019,2.95440698 84.6015787,2.57879228 84.5999978,2.19599994 C84.6016864,1.81038059 84.7040652,1.4318894 84.8969978,1.09799997 C85.0858293,0.75440959 85.3703419,0.473023545 85.7159977,0.287999992 C86.0460422,0.10268551 86.4175038,0.00362906889 86.7959977,0 L86.7959977,0.00899999976 Z" id="Shape" fill="#000000" fill-rule="nonzero"></path>
                            </g>
                        </g>
                    </g>
                </g>
            </g>
        </g>
    </g>
</svg>