<?xml version="1.0" encoding="UTF-8"?>
<svg width="82px" height="51px" viewBox="0 0 82 51" version="1.1" xmlns="http://www.w3.org/2000/svg" xmlns:xlink="http://www.w3.org/1999/xlink">
    <title>7879BBD0-6DED-46D4-B210-28148000E8A1@3x</title>
    <g id="Final-UI" stroke="none" stroke-width="1" fill="none" fill-rule="evenodd">
        <g id="schedule---LOT-event" transform="translate(-860.000000, -676.000000)" fill="#00143F">
            <g id="Group-4" transform="translate(380.000000, 598.000000)">
                <g id="Group-25" transform="translate(97.000000, 50.000000)">
                    <g id="Group-19" transform="translate(348.000000, 1.000000)">
                        <g id="Group-29" transform="translate(20.000000, 8.000000)">
                            <g id="Logos-03" transform="translate(15.000000, 19.000000)">
                                <path d="M63.13,8.72 C63.711776,8.69527978 64.2061478,8.28670804 64.34,7.72 C64.3998205,7.47300296 64.3402499,7.21224939 64.1791063,7.01573281 C64.0179627,6.81921622 63.7739299,6.70972172 63.52,6.72 C62.9393961,6.74233864 62.4466715,7.15294246 62.32,7.72 C62.2562888,7.96571313 62.3129688,8.22708141 62.4727404,8.42433026 C62.632512,8.62157912 62.8764129,8.73129851 63.13,8.72" id="Path"></path>
                                <path d="M77.05,11 C78.0419456,10.66903 78.7961985,9.8544368 79.05,8.84 C79.1007821,8.59745768 79.040537,8.3449112 78.8857366,8.15141071 C78.7309362,7.95791022 78.4977739,7.84369747 78.25,7.84 C77.6870323,7.84486891 77.1891117,8.20626283 77.01,8.74 C76.8989775,8.96976043 76.9217785,9.24173239 77.0695067,9.44980024 C77.2172349,9.6578681 77.4664824,9.76906303 77.72,9.74 C77.82,9.74 77.79,9.74 77.89,9.74 C77.696223,10.2278918 77.3440159,10.6364521 76.89,10.9 C76.74,10.99 76.79,11.12 77.06,11.05" id="Path"></path>
                                <path d="M19.8,10.78 C20.36,10.54 23.88,9.3 24.25,5.67 C24.360277,4.25565368 23.8534299,2.8627357 22.86,1.85 C23.4097593,1.42776637 24.0199233,1.0906592 24.67,0.85 C24.98,0.74 24.74,0.5 24.45,0.6 C23.7745881,0.842668046 23.1274742,1.15784269 22.52,1.54 C21.2814349,0.614997183 19.7650125,0.138911068 18.22,0.19 C14.46,0.19 5.53,2.5 2.96,9.54 C1.96,12.28 3.22,14.71 5.91,14.72 C7.07,14.72 9.03,14.1 10.85,11.85 C11.09,11.55 10.85,11.32 10.56,11.61 C8.56,13.95 6.27,14.68 4.95,14.09 C1.76,12.66 4.86,7.31 7.85,4.8 C10.67,2.43 15.09,0.46 18.44,0.57 C19.7668218,0.557268566 21.0581616,0.998299902 22.1,1.82 C18.2309372,4.48879629 15.0059517,7.9870857 12.66,12.06 C7.73,20.06 5.99,21.44 3.58,21.51 C1.58,21.57 0.98,20.6 0.98,19.66 C0.919654283,18.8439168 1.38051436,18.0784884 2.13,17.75 C2.25,17.69 2.29,17.61 2.27,17.53 C2.25,17.45 2.1,17.45 1.99,17.53 C1.1269919,17.8388985 0.519484964,18.6177535 0.43,19.53 C0.39840434,20.2340786 0.66427872,20.9190017 1.16263849,21.4173615 C1.66099827,21.9157213 2.34592142,22.1815957 3.05,22.15 C4.27,22.22 9.26,22.93 14.76,12.78 C17.47,7.78 20.2,4.11 22.4,2.25 C22.702368,2.78019301 22.8218472,3.39515948 22.74,4 C22.58,6.39 21.12,9.35 19.43,10.36 C19.1148091,10.050734 18.7003439,9.86298483 18.26,9.83 C17.56,9.83 17.09,10.06 17.04,10.44 C16.99,10.82 17.18,11.23 18.11,11.22 C18.4888701,11.2021795 18.8629737,11.1280328 19.22,11 C19.3207949,11.6192586 19.3207949,12.2507414 19.22,12.87 C18.94,16.2 15.5,21.63 13.37,21.61 C12.26,21.61 12.21,20.68 12.26,20.05 C12.5682445,17.8707042 14.2653183,16.1492705 16.44,15.81 C16.57,15.81 16.79,15.44 15.98,15.62 C14.6241493,15.945797 13.418642,16.7212695 12.56,17.82 C11.4,19.28 11.13,21.98 13.63,22.18 C16.46,22.4 20.37,19.02 20.81,14.43 C21.0214363,13.1228035 20.6567558,11.7880729 19.81,10.77 M18.06,10.88 C17.61,10.88 17.48,10.67 17.53,10.48 C17.58,10.29 17.75,10.22 18.1,10.22 C18.4792744,10.1775402 18.8546357,10.3276847 19.1,10.62 C18.7758282,10.7906086 18.4162603,10.8830689 18.05,10.89 L18.06,10.88 Z" id="Shape"></path>
                                <path d="M81.18,10.49 C80.86,10.35 80.37,10.73 80.11,11.24 C79.59,12.24 79.26,12.91 79.11,13.16 C79.0184775,13.3219192 78.9183336,13.4788113 78.81,13.63 C78.22,14.5 77,16.23 76.37,17.09 C76.17,17.36 75.96,17.58 75.81,17.78 C75.3692592,17.6677921 74.9054519,17.843719 74.65,18.22 C74.3215186,18.5971446 74.1249221,19.0710827 74.09,19.57 C72.62,20.83 71.37,21.26 70.84,21.13 C69.45,20.8 71.35,17.86 71.47,17.67 C71.59,17.48 71.85,17.5 71.98,17.47 C73.4655493,17.3137566 74.8092188,16.5177785 75.66,15.29 C76.17,14.35 75.96,13.29 75.39,13.02 C74.680009,12.8294337 73.9223577,12.9532806 73.31,13.36 C72.0778707,14.146549 71.0305648,15.1904435 70.24,16.42 C69.67,17.3 69.61,17.72 69.11,18.42 C68.03,20.01 66.87,21.19 66.11,21.19 C65.77,21.19 65.5,20.67 66.11,19.66 C67.1911986,18.3302547 68.1929417,16.9378319 69.11,15.49 C69.73,14.23 69.56,13.19 68.9,12.98 C67.61,12.58 65.55,15.06 64.24,16.72 C64.24,16.72 64.18,16.72 64.24,16.72 L66.61,13 L64.91,13 C64.91,13 64.44,13.71 63.81,14.61 C62.81,16.03 61.5,17.94 61.19,18.36 C60.19,19.84 58.7,21.24 58,21.24 C57.3,21.24 57.77,20.07 58.7,18.47 L62.06,13 L60.19,13 L56.83,18.46 C55.75,20.05 54.6,21.21 53.91,21.21 C53.22,21.21 53.51,20.06 54.44,18.46 L58.44,11.9 L61.44,11.9 C63.6,11.9 64.44,11.31 64.78,10.85 C64.89,10.7 64.86,10.51 64.62,10.7 C63.7383343,11.238227 62.7101287,11.4865352 61.68,11.41 L58.75,11.41 L61.38,7.12 L59.52,7.12 L56.89,11.41 L55.15,11.41 C54.5080742,11.3648766 53.8657873,11.4926433 53.29,11.78 C52.96,11.99 53.13,12.1 53.4,12 C53.8043844,11.9166078 54.2174556,11.8830248 54.63,11.9 L56.63,11.9 L52.63,18.47 C51.55,20.06 50.36,21.22 49.63,21.22 C49.5746057,21.2369821 49.5153943,21.2369821 49.46,21.22 C49.25,21.1 49.13,20.53 49.64,19.75 C50.7042245,18.4120739 51.6892416,17.0130157 52.59,15.56 C53.21,14.3 53.04,13.26 52.37,13.05 C51.09,12.65 49.03,15.13 47.71,16.79 C47.71,16.79 47.71,16.79 47.71,16.79 C48.03,16.31 50.14,13.02 50.14,13.02 L48.38,13.02 L47.27,14.63 C46.09,16.32 45.09,17.84 44.57,18.52 C43.43,20.01 42.33,21.25 41.64,21.25 C40.95,21.25 41.64,19.49 42.94,17.32 L45.61,13.02 L43.86,13.02 L43.17,14.16 C43.35,13.41 43.17,12.96 42.7,12.96 C41.15,12.96 38.76,14.75 37.31,17.15 C37.24,17.27 36.76,17.96 36.38,18.54 C35.38,20.11 34.44,21.23 33.7,21.25 C32.96,21.27 33.38,20.12 34.31,18.52 L43,4.22 L41.18,4.22 L32.42,18.45 C31.42,20.02 30.42,21.17 29.7,21.17 C28.98,21.17 29.38,20.03 30.31,18.44 L39.05,4.21 L37.18,4.21 L28.45,18.45 C27.45,20.03 26.51,21.17 25.81,21.17 C25.11,21.17 25.81,19.41 27.11,17.24 L29.76,13 L28,13 L27.3,14.14 C27.48,13.39 27.3,12.94 26.83,12.94 C25.28,12.94 22.9,14.73 21.45,17.13 C20,19.53 20.77,21.64 21.81,21.64 C22.85,21.64 23.62,20.64 24.62,19.13 C24.4,20.58 25,21.62 25.74,21.62 C26.67,21.62 27.64,20.48 28.67,18.93 C28.28,20.51 28.52,21.62 29.56,21.62 C30.6,21.62 31.64,20.44 32.68,18.89 C32.27,20.49 32.68,21.63 33.56,21.62 C34.0533411,21.5747445 34.5143299,21.3548883 34.86,21 C35.5234515,20.3440545 36.1074622,19.6123629 36.6,18.82 C36.5112595,19.2757202 36.5112595,19.7442798 36.6,20.2 C36.74,21.03 37.19,21.56 37.71,21.56 C38.61,21.56 39.52,20.56 40.52,19.05 C40.32,20.57 40.81,21.56 41.63,21.56 C42.45,21.56 44.01,19.9 45.1,18.33 L45.1,18.33 L42.95,21.5 L44.8,21.5 C44.99,21.23 47.28,17.92 47.7,17.35 C49.38,15.07 51.17,13.2 51.7,13.52 C51.87,13.63 51.83,14.05 51.54,14.52 C50.35,16.33 49.38,17.15 48.68,18.52 C48.1899553,19.3604506 48.1899553,20.3995494 48.68,21.24 C48.9088415,21.4713083 49.2249593,21.5948485 49.55,21.58 C50.55,21.58 51.9,20.16 52.83,18.78 C52.47,20.35 52.55,21.58 53.74,21.58 C54.93,21.58 56.15,20.17 57.08,18.79 C56.67,20.41 56.89,21.58 57.89,21.58 C58.89,21.58 60.51,19.98 61.59,18.42 L61.59,18.42 L59.59,21.51 L61.39,21.51 C61.58,21.24 63.87,17.93 64.29,17.36 C65.98,15.08 67.76,13.2 68.29,13.52 C68.46,13.64 68.43,14.05 68.13,14.52 C66.95,16.33 65.98,17.15 65.28,18.52 C64.7813928,19.3581164 64.7813928,20.4018836 65.28,21.24 C65.4896297,21.4629822 65.7840218,21.5865542 66.09,21.58 C67.19,21.58 68.37,20.33 69.33,18.91 C69.2748886,19.2947029 69.2748886,19.6852971 69.33,20.07 C69.3973162,20.9169878 70.1003762,21.5723091 70.95,21.58 C72.1301785,21.3674683 73.223943,20.8188499 74.1,20 C74.21,20.91 74.69,21.55 75.62,21.55 C78.02,21.55 79.8,19.29 79.98,17.06 C80.08,15.87 79.56,13.67 79.74,13.17 C79.92,12.67 80.67,12.25 81.06,11.61 C81.45,10.97 81.38,10.54 81.18,10.45 M74.83,13.28 C75.34,13.28 74.83,14.44 74.35,15.13 C74,15.65 73.35,16.85 72.21,17.01 C72.0546501,17.028571 71.9008939,17.0586537 71.75,17.1 C72.1,16.52 74,13.32 74.83,13.32 L74.83,13.28 Z M21.89,21.18 C21.27,21.18 21.89,19.42 23.18,17.25 C24.47,15.08 26.09,13.31 26.71,13.31 C27.33,13.31 26.61,15.07 25.28,17.25 C23.95,19.43 22.74,21.18 21.89,21.18 Z M40.45,18.4 C39.45,20 38.45,21.16 37.8,21.16 C37.44,21.16 37.49,20.56 37.86,19.62 C38.2007894,18.7895745 38.612303,17.9899668 39.09,17.23 C40.43,15.06 42,13.29 42.62,13.29 C43.24,13.29 42.52,15.06 41.19,17.23 C40.94,17.64 40.69,18 40.45,18.4 Z M75.22,21.14 C74.69,21.01 74.52,20.23 74.49,19.83 C74.8537608,19.7379286 75.1943369,19.5710463 75.49,19.34 C75.9203031,19.0527686 76.1431388,18.5406374 76.06,18.03 C76.8,17.13 78.18,15.21 79.06,13.83 C79.05,16.29 77,21.56 75.22,21.14 Z" id="Shape"></path>
                                <path d="M19.27,37.25 C17.99,37.25 17.27,36.35 17.08,34.56 L18.38,34.35 C18.51,35.51 18.82,35.87 19.27,35.87 C19.72,35.87 19.98,35.56 19.98,34.92 C19.98,33.92 19.66,33.4 18.63,32.14 C17.7805431,31.2501286 17.2617193,30.0960103 17.16,28.87 C17.16,27.56 17.83,26.52 19.16,26.52 C20.49,26.52 21.06,27.52 21.26,28.88 L20,29.17 C19.85,28.29 19.63,27.87 19.2,27.87 C18.77,27.87 18.54,28.17 18.54,28.87 C18.54,29.57 18.82,30.1 19.64,31.11 C20.6285231,32.1111576 21.2337829,33.427863 21.35,34.83 C21.35,36.23 20.59,37.28 19.35,37.28" id="Path" fill-rule="nonzero"></path>
                                <polygon id="Path" fill-rule="nonzero" points="22.37 26.68 22.37 27.99 23.84 27.99 23.84 37.09 25.18 37.09 25.18 27.99 26.65 27.99 26.65 26.68"></polygon>
                                <path d="M30,30.4 C29.94,29.91 29.88,29.45 29.84,28.96 C29.84,29.45 29.73,29.91 29.67,30.41 L29.3,33.3 L30.39,33.3 L30,30.4 Z M30.91,37.09 L30.57,34.59 L29.16,34.59 L28.83,37.09 L27.48,37.09 L29.17,26.68 L30.63,26.68 L32.31,37.09 L30.91,37.09 Z" id="Shape" fill-rule="nonzero"></path>
                                <path d="M36.27,32.51 L36.27,37.09 L34.93,37.09 L34.93,32.59 L33,26.68 L34.5,26.68 L35.18,29.31 C35.32,29.82 35.51,30.76 35.6,31.31 C35.68,30.72 35.87,29.77 35.99,29.31 L36.6,26.68 L38,26.68 L36.27,32.51 Z" id="Path" fill-rule="nonzero"></path>
                                <polygon id="Path" fill-rule="nonzero" points="41.78 26.68 41.78 27.99 43.25 27.99 43.25 37.09 44.59 37.09 44.59 27.99 46.06 27.99 46.06 26.68"></polygon>
                                <path d="M49.85,28 L49.3,28 L49.3,31.24 L49.77,31.24 C50.41,31.24 50.77,30.79 50.77,29.62 C50.77,28.45 50.47,28 49.77,28 M50.77,37.14 L49.77,32.46 L49.3,32.46 L49.3,37.14 L48,37.14 L48,26.68 L49.89,26.68 C51.15,26.68 52.19,27.32 52.19,29.49 C52.2903617,30.4461076 51.9169316,31.3908858 51.19,32.02 L52.29,37.09 L50.77,37.14 Z" id="Shape" fill-rule="nonzero"></path>
                                <path d="M56.38,37.25 C55.02,37.25 54.2,36.25 54.2,34.67 L54.2,26.67 L55.54,26.67 L55.54,34.58 C55.54,35.53 55.83,35.9 56.4,35.9 C56.97,35.9 57.23,35.53 57.23,34.6 L57.23,26.68 L58.57,26.68 L58.57,34.58 C58.57,36.29 57.85,37.25 56.38,37.25" id="Path" fill-rule="nonzero"></path>
                                <polygon id="Path" fill-rule="nonzero" points="60.87 26.68 60.87 37.09 64.67 37.09 64.67 35.78 62.21 35.78 62.21 32.26 63.97 32.26 63.97 30.95 62.21 30.95 62.21 27.99 64.5 27.99 64.5 26.68"></polygon>
                                <polygon id="Path" fill-rule="nonzero" points="45 41.67 45 41.54 36.76 41.54 36.76 41.8 45 41.8 45 41.54 45 41.67 45 41.54 36.76 41.54 36.76 41.8 45 41.8 45 41.54 45 41.67"></polygon>
                                <path d="M28,49.36 C28,50.26 27.7,50.7000053 27.08,50.7000053 C26.7102802,50.701335 26.3878066,50.4491441 26.3,50.09 C26.1594774,49.5518955 26.1021469,48.9954523 26.13,48.44 C26.1035121,47.870785 26.1642135,47.3008662 26.31,46.75 C26.4060016,46.4061915 26.7231428,46.1714247 27.08,46.18 C27.62,46.18 27.92,46.6 27.96,47.43 L27.4,47.5 C27.4,47 27.26,46.74 27.08,46.74 C26.9,46.74 26.83,46.85 26.78,47.07 C26.7129785,47.5234133 26.6862074,47.9818676 26.7,48.44 C26.6879724,48.8781716 26.7147435,49.316548 26.78,49.75 C26.84,50.01 26.94,50.14 27.1,50.14 C27.26,50.14 27.45,49.9 27.45,49.4 L27.45,48.9 L27.08,48.9 L27.08,48.36 L28,48.36 L28,49.36 Z" id="Path" fill-rule="nonzero"></path>
                                <path d="M30.89,48.43 C30.9159358,48.9958998 30.855235,49.5624399 30.71,50.11 C30.6135641,50.4648593 30.2876364,50.7082736 29.92,50.7 C29.5610973,50.7016072 29.2474223,50.4580963 29.16,50.11 C29.0203849,49.5684035 28.9663983,49.0082921 29,48.45 C28.9731808,47.8873716 29.0339044,47.3239909 29.18,46.78 C29.2623374,46.4210694 29.5817465,46.1666352 29.95,46.1666352 C30.3182535,46.1666352 30.6376626,46.4210694 30.72,46.78 C30.8635767,47.3175473 30.9209567,47.8744705 30.89,48.43 L30.89,48.43 Z M30.31,48.43 C30.3249651,47.9714875 30.2948201,47.5126142 30.22,47.06 C30.16,46.83 30.06,46.71 29.92,46.71 C29.78,46.71 29.69,46.83 29.64,47.06 C29.5737164,47.5000597 29.5469429,47.9451679 29.56,48.39 C29.5444454,48.8485221 29.5745942,49.3074534 29.65,49.76 C29.65,49.99 29.8,50.11 29.94,50.11 C30.08,50.11 30.18,49.99 30.23,49.75 C30.2946509,49.3232 30.3214219,48.8915177 30.31,48.46 L30.31,48.43 Z" id="Shape" fill-rule="nonzero"></path>
                                <polygon id="Path" fill-rule="nonzero" points="33.32 50.63 31.88 50.63 31.88 46.25 32.44 46.25 32.44 50.08 33.32 50.08"></polygon>
                                <polygon id="Path" fill-rule="nonzero" points="35.79 46.8 34.79 46.8 34.79 48.05 35.53 48.05 35.53 48.6 34.79 48.6 34.79 50.6 34.22 50.6 34.22 46.25 35.8 46.25"></polygon>
                                <path d="M40,50.63 L39.41,50.63 L39,48.63 L38.74,48.63 L38.74,50.63 L38.18,50.63 L38.18,46.25 L38.98,46.25 C39.62,46.25 39.98,46.64 39.98,47.43 C40.0273236,47.8344062 39.8697807,48.2357656 39.56,48.5 L40,50.63 Z M39.38,47.46 C39.3903376,47.2778251 39.3560089,47.0958831 39.28,46.93 C39.2163136,46.8273993 39.1002924,46.7693887 38.98,46.78 L38.74,46.78 L38.74,48.15 L38.94,48.15 C39.18,48.15 39.33,47.92 39.33,47.46 L39.38,47.46 Z" id="Shape" fill-rule="nonzero"></path>
                                <polygon id="Path" fill-rule="nonzero" points="42.52 50.63 40.92 50.63 40.92 46.25 42.45 46.25 42.45 46.8 41.45 46.8 41.45 48.05 42.2 48.05 42.2 48.6 41.45 48.6 41.45 50.08 42.45 50.08"></polygon>
                                <polygon id="Path" fill-rule="nonzero" points="45.12 46.8 44.5 46.8 44.5 50.63 43.94 50.63 43.94 46.8 43.32 46.8 43.32 46.25 45.12 46.25"></polygon>
                                <path d="M47.81,50.63 L47.23,50.63 L46.81,48.63 L46.56,48.63 L46.56,50.63 L46,50.63 L46,46.25 L46.8,46.25 C47.45,46.25 47.8,46.64 47.8,47.43 C47.8462045,47.8322119 47.693148,48.2316521 47.39,48.5 L47.81,50.63 Z M47.19,47.46 C47.2022942,47.278704 47.1714515,47.097075 47.1,46.93 C47.0301147,46.8291045 46.912486,46.7721874 46.79,46.78 L46.56,46.78 L46.56,48.15 L46.76,48.15 C47.05,48.15 47.19,47.92 47.19,47.46 Z" id="Shape" fill-rule="nonzero"></path>
                                <polygon id="Path" fill-rule="nonzero" points="50.39 50.63 48.78 50.63 48.78 46.25 50.31 46.25 50.31 46.8 49.31 46.8 49.31 48.05 50.05 48.05 50.05 48.6 49.31 48.6 49.31 50.08 50.31 50.08"></polygon>
                                <path d="M53.21,50.63 L52.63,50.63 L52.49,49.63 L51.89,49.63 L51.75,50.63 L51.18,50.63 L51.89,46.25 L52.51,46.25 L53.21,50.63 Z M52.41,49 L52.25,47.77 C52.25,47.56 52.25,47.36 52.18,47.17 C52.18,47.35 52.18,47.55 52.11,47.78 L52,49 L52.41,49 Z" id="Shape" fill-rule="nonzero"></path>
                                <polygon id="Path" fill-rule="nonzero" points="55.65 46.8 55 46.8 55 50.63 54.44 50.63 54.44 46.8 53.82 46.8 53.82 46.25 55.62 46.25"></polygon>
                            </g>
                        </g>
                    </g>
                </g>
            </g>
        </g>
    </g>
</svg>