<?xml version="1.0" encoding="UTF-8"?>
<svg width="118px" height="22px" viewBox="0 0 118 22" version="1.1" xmlns="http://www.w3.org/2000/svg" xmlns:xlink="http://www.w3.org/1999/xlink">
    <title>87FB3B3E-CA20-4781-9ECC-882434F37753@3x</title>
    <g id="Final-UI" stroke="none" stroke-width="1" fill="none" fill-rule="evenodd">
        <g id="schedule---LOT-event" transform="translate(-1015.000000, -698.000000)" fill-rule="nonzero">
            <g id="Group-4" transform="translate(380.000000, 598.000000)">
                <g id="Group-25" transform="translate(97.000000, 50.000000)">
                    <g id="Group-20" transform="translate(522.000000, 1.000000)">
                        <g id="Group-30" transform="translate(16.000000, 8.000000)">
                            <g id="Logos-04" transform="translate(0.000000, 41.000000)">
                                <path d="M53.1679968,4.79999971 L53.3679968,4.79999971 C54.6675475,4.82472583 55.9244541,5.26800982 56.9519966,6.06399964 C58.4031275,7.20783234 59.2517712,8.95226664 59.2559965,10.7999997 C59.2796675,13.137402 57.9165709,15.2668478 55.7839967,16.223999 C55.0327774,16.5787961 54.2146631,16.7696894 53.3839968,16.783999 L53.1839968,16.783999 C51.8838254,16.7627156 50.6258632,16.3190593 49.599997,15.5199991 C49.2226736,15.2249958 48.8840084,14.8836428 48.5919971,14.5039991 C47.7537519,13.4518319 47.2994101,12.1452465 47.3039628,10.7999997 C47.306919,9.32172337 47.8569209,7.89684801 48.8479971,6.79999971 C49.1823817,6.42334923 49.5673816,6.09488774 49.991997,5.82399965 C50.9400214,5.18928315 52.0512557,4.84202242 53.1919968,4.82399971 M49.3279971,10.8239994 L49.3279971,10.9039994 C49.3540572,13.0377829 51.0821239,14.7587383 53.2159968,14.7759991 L53.3679968,14.7759991 C55.4987475,14.7544141 57.2220138,13.034701 57.2479966,10.9039994 L57.2479966,10.8239994 C57.2579909,9.72374905 56.8051193,8.66995161 55.9999967,7.91999953 C55.2978629,7.24021851 54.3612498,6.85640762 53.3839968,6.84799959 L53.1599968,6.84799959 C52.4477895,6.86405406 51.7534855,7.07428157 51.151997,7.45599956 C50.8288877,7.66646935 50.5332752,7.91639629 50.271997,8.19999951 C49.9100294,8.60230398 49.6373794,9.07671498 49.4719971,9.59199943 C49.3352291,9.98244739 49.2701828,10.3944068 49.2799971,10.8079994" id="Shape" fill="#58595B"></path>
                                <path d="M72.3039957,0 L72.3919957,0 C72.7798411,0.0163818961 73.1244536,0.252332811 73.2799956,0.607999964 C73.3214076,0.724241297 73.3482783,0.845159801 73.3599956,0.967999942 L73.3599956,15.8239991 C73.3491287,16.2294742 73.0925009,16.5874858 72.7119957,16.727999 C72.5886318,16.771269 72.4587247,16.7929202 72.3279957,16.791999 C71.9172007,16.7935382 71.5494151,16.5376874 71.4079957,16.151999 C71.3508154,15.9226863 71.1482173,15.7593007 70.9119958,15.7519991 L70.9119958,15.7519991 C70.7701142,15.7668097 70.6347734,15.8192887 70.5199958,15.9039991 C69.6038323,16.479623 68.545936,16.7897916 67.463996,16.799999 L67.287996,16.799999 C66.0581119,16.7909043 64.8615072,16.3994916 63.8639962,15.6799991 C63.3103991,15.2844956 62.8310316,14.794295 62.4479963,14.2319992 C61.7369963,13.2149416 61.3621416,12.00086 61.3759963,10.7599994 C61.3857232,9.52652714 61.7738743,8.32577196 62.4879963,7.31999956 C62.8957184,6.74370229 63.4087288,6.24969225 63.9999962,5.86399965 C64.5420575,5.49803068 65.1427163,5.22746365 65.7759961,5.0639997 C66.3067809,4.90794574 66.8550812,4.81925009 67.407996,4.79999971 C68.5431832,4.81618371 69.651362,5.14863735 70.6079958,5.75999966 C70.6718807,5.78593065 70.7393006,5.80211142 70.8079958,5.80799965 C71.0353884,5.80288123 71.2330671,5.65057142 71.2959958,5.43199968 C71.2959958,5.36799968 71.2959958,5.32799968 71.2959958,5.29599968 L71.2959958,1.21599993 C71.238746,0.746912979 71.4864047,0.293407939 71.9119957,0.0879999948 C72.0268374,0.0419034038 72.1484394,0.0148807474 72.2719957,0.00799999952 M63.4079962,10.7359994 L63.4079962,10.8639994 C63.4164214,12.9935585 65.1267049,14.7251761 67.255996,14.7599991 L67.463996,14.7599991 C68.3873921,14.7462677 69.2754742,14.4029516 69.9679958,13.7919992 C70.2436993,13.5573801 70.4883412,13.2885428 70.6959958,12.9919992 C71.0974745,12.3656973 71.316339,11.639843 71.3279957,10.8959994 L71.3279957,10.7679994 C71.3103425,9.68321389 70.8475008,8.65339095 70.0479958,7.91999953 C69.3442504,7.26675315 68.4240583,6.8963972 67.463996,6.87999959 L67.255996,6.87999959 C65.952243,6.90284099 64.7483521,7.58303937 64.0559962,8.68799948 C63.6497911,9.30617756 63.4303669,10.0283331 63.4239962,10.7679994" id="Shape" fill="#58595B"></path>
                                <path d="M86.3999949,0 L86.4799948,0 C86.8691114,0.012530522 87.2155837,0.249754841 87.3679948,0.607999964 C87.4133008,0.723084952 87.4402948,0.844558077 87.4479948,0.967999942 L87.4479948,15.8239991 C87.4406112,16.2281898 87.1867701,16.5867404 86.8079948,16.727999 C86.6771978,16.7754723 86.5391406,16.799999 86.3999949,16.799999 C85.9884336,16.7979588 85.6201537,16.5439727 85.4719949,16.159999 C85.4180528,15.9319309 85.2182144,15.7681289 84.9839949,15.7599991 L84.9839949,15.7599991 C84.8393333,15.7734054 84.7010531,15.8259519 84.583995,15.9119991 C83.688006,16.4725606 82.6566899,16.779467 81.5999951,16.799999 L81.4239951,16.799999 C80.194111,16.7909043 78.9975063,16.3994916 77.9999954,15.6799991 C77.4463983,15.2844956 76.9670308,14.794295 76.5839954,14.2319992 C75.8706452,13.2156533 75.4930187,12.0016543 75.5039955,10.7599994 C75.5172886,9.52710629 75.9051039,8.32738987 76.6159954,7.31999956 C77.0227138,6.74504354 77.535997,6.25348654 78.1279953,5.87199965 C78.6687159,5.50363146 79.269807,5.23286971 79.9039952,5.0719997 C80.4263681,4.93423238 80.9637905,4.86168036 81.5039951,4.85599971 C82.6395748,4.86962712 83.7484409,5.20228695 84.703995,5.81599965 C84.7681178,5.84118195 84.8354275,5.85733628 84.9039949,5.86399965 C85.1334783,5.85979404 85.333959,5.70781672 85.3999949,5.48799967 C85.4031315,5.4427206 85.4031315,5.39727876 85.3999949,5.35199968 L85.3999949,1.27199992 C85.3466087,0.801492067 85.5970409,0.348787712 86.0239949,0.143999991 C86.1393604,0.0731928147 86.2668445,0.0243691231 86.3999949,0 M77.5039954,10.7199994 L77.5039954,10.8479996 C77.5186521,11.9387263 77.978126,12.9761547 78.7759953,13.7199992 C79.4800159,14.3606191 80.3923359,14.7244103 81.3439952,14.7439991 L81.5999951,14.7439991 C82.5231188,14.7288678 83.4107334,14.3857324 84.103995,13.7759992 C84.3776244,13.5416354 84.6196495,13.2727186 84.8239949,12.9759992 C85.2302516,12.3519071 85.4495413,11.6246427 85.4559949,10.8799994 L85.4559949,10.7519994 C85.4349319,8.62326232 83.7283087,6.89539489 81.5999951,6.84799959 L81.3839951,6.84799959 C79.2698345,6.90767505 77.5774044,8.62126058 77.5439954,10.7359994" id="Shape" fill="#58595B"></path>
                                <path d="M91.4559945,4.79999971 C91.7718627,4.80394738 92.0746447,4.92677404 92.3039945,5.14399969 C92.5172461,5.35350694 92.6282955,5.64574241 92.6079945,5.94399965 L92.6079945,11.1999993 C92.4832058,12.1571369 92.8875066,13.106631 93.6639944,13.6799992 C93.8054489,13.8009545 93.9581436,13.9081087 94.1199944,13.9999992 C94.7343807,14.3847836 95.4430997,14.5924162 96.1679943,14.5999991 L96.3759943,14.5999991 C97.1774921,14.5946994 97.9575064,14.3402861 98.6079941,13.8719992 C98.92263,13.6629408 99.2055315,13.4096766 99.4479941,13.1199992 C99.6660745,12.8001182 99.8133564,12.4373683 99.879994,12.0559993 C99.923109,11.7727928 99.9418444,11.4864091 99.935994,11.1999993 L99.935994,5.80799965 C99.954296,5.39084302 100.227902,5.02815649 100.623994,4.89599971 C100.774194,4.84668253 100.930167,4.8171013 101.087994,4.80799971 C101.446403,4.80837272 101.787352,4.96281978 102.023994,5.23199969 C102.208043,5.45568925 102.294518,5.743938 102.263994,6.03199964 L102.263994,15.6319991 C102.302557,16.1164952 102.01034,16.5663128 101.551994,16.727999 C101.401497,16.7748668 101.245496,16.8017636 101.087994,16.807999 C100.63819,16.7929051 100.227514,16.5483111 99.999994,16.159999 C99.8758588,16.0724436 99.7278971,16.0249842 99.5759941,16.023999 C99.2682912,16.0985761 98.9702937,16.2086472 98.6879941,16.351999 C98.1747652,16.5526751 97.6363976,16.6818833 97.0879942,16.735999 C96.8547562,16.7696084 96.6196126,16.788313 96.3839943,16.791999 C94.7675854,16.8207535 93.1976135,16.2508907 91.9759945,15.1919991 C91.4626985,14.7293127 91.046617,14.1690985 90.7519946,13.5439992 C90.4211422,12.8255233 90.2675086,12.038151 90.3039946,11.2479993 L90.3039946,5.99199964 C90.2652492,5.60597224 90.44799,5.23119858 90.7759946,5.0239997 C90.982224,4.87999695 91.2284897,4.80443816 91.4799945,4.80799971" id="Path" fill="#58595B"></path>
                                <path d="M106.135994,4.79999971 C106.46389,4.82345141 106.760997,5.00171564 106.935994,5.27999969 C107.079994,5.62399966 107.199994,5.79199965 107.295994,5.79199965 C107.391994,5.79199965 107.359994,5.79199965 107.479994,5.83999965 L107.527994,5.83999965 C107.836459,5.76313401 108.127135,5.62730387 108.383994,5.43999968 C109.223799,5.02859512 110.144884,4.80993991 111.079993,4.79999971 C112.27224,4.81307473 113.434628,5.17458303 114.423993,5.83999965 C116.040155,6.95788268 117.017344,8.78713242 117.047993,10.7519994 L117.047993,10.8079994 C117.045122,12.1760665 116.570424,13.5012669 115.703993,14.5599991 C115.401386,14.9437543 115.048945,15.2854335 114.655993,15.5759991 C112.675701,17.0787734 109.969389,17.1904726 107.871994,15.8559991 C107.801725,15.820012 107.72607,15.7956945 107.647994,15.7839991 L107.567994,15.7839991 C107.255994,15.8399991 107.095994,16.007999 107.095994,16.279999 L107.095994,20.3999988 C107.152162,20.8288092 106.935004,21.2471588 106.551994,21.4479987 C106.41448,21.5398038 106.253322,21.5898185 106.087994,21.5920812 C105.645006,21.5976635 105.251093,21.3111815 105.119994,20.8879988 C105.07632,20.7291842 105.057431,20.5645782 105.063994,20.3999988 L105.063994,5.99999964 C105.012254,5.54250386 105.25196,5.10144504 105.663994,4.89599971 C105.807215,4.84133092 105.958734,4.81156825 106.111994,4.80799971 M107.095994,10.7839994 C107.076735,11.8326622 107.477667,12.8454739 108.209477,13.5968186 C108.941286,14.3481634 109.943187,14.7756314 110.991993,14.7839991 L111.127993,14.7839991 C112.169252,14.774032 113.163189,14.3476476 113.887993,13.5999992 C114.667789,12.8037319 115.080018,11.7182322 115.025347,10.6050679 C114.970676,9.49190363 114.454063,8.45202239 113.599993,7.73599954 C113.063429,7.32439023 112.434607,7.04979568 111.767993,6.93599959 C111.58803,6.90581986 111.40633,6.88711545 111.223993,6.87999959 L110.943993,6.87999959 C110.205241,6.90562916 109.488039,7.13546602 108.871994,7.54399955 C108.120802,8.04924589 107.558159,8.7891216 107.271994,9.64799942 C107.164485,10.0283913 107.105352,10.4208176 107.095994,10.8159994" id="Shape" fill="#58595B"></path>
                                <path d="M12.5119993,10.7999997 C12.5075824,14.1082444 9.82292007,16.7869402 6.5146734,16.7839991 C3.20642673,16.781053 0.526535571,14.0975839 0.528005296,10.7893362 C0.529476231,7.4810886 3.21175163,4.79999971 6.51999961,4.79999971 C9.82928964,4.79999971 12.5119993,7.48270933 12.5119993,10.7919994" id="Path" fill="#5FBA46"></path>
                                <path d="M28.0959983,10.7999997 C28.0915814,14.1082444 25.4069191,16.7869402 22.0986725,16.7839991 C18.7904258,16.781053 16.1105346,14.0975839 16.1120044,10.7893362 C16.1134753,7.4810886 18.7957507,4.79999971 22.1039987,4.79999971 C25.4132887,4.79999971 28.0959983,7.48270933 28.0959983,10.7919994" id="Path" fill="#F79722"></path>
                                <path d="M28.0959983,10.7999997 C28.0915814,14.1082444 25.4069191,16.7869402 22.0986725,16.7839991 C18.7904258,16.781053 16.1105346,14.0975839 16.1120044,10.7893362 C16.1134753,7.4810886 18.7957507,4.79999971 22.1039987,4.79999971 C25.4132887,4.79999971 28.0959983,7.48270933 28.0959983,10.7919994" id="Path" fill="#F8A51B"></path>
                                <path d="M43.6800027,10.7999943 C43.6800027,13.2275002 42.2172751,15.4158222 39.9742466,16.3440375 C37.7312181,17.2722527 35.1498848,16.7574502 33.434528,15.0398032 C31.7191711,13.3221562 31.2078132,10.7401383 32.1390203,8.4983502 C33.0702274,6.25656213 35.260499,4.79676305 37.6879978,4.79999434 C39.2785619,4.79999434 40.8038641,5.4323945 41.9278123,6.55784326 C43.0517604,7.68329202 43.682121,9.2094366 43.6800027,10.7999943" id="Path" fill="#ED3028"></path>
                            </g>
                        </g>
                    </g>
                </g>
            </g>
        </g>
    </g>
</svg>