<?xml version="1.0" encoding="UTF-8"?>
<svg width="205px" height="58px" viewBox="0 0 205 58" version="1.1" xmlns="http://www.w3.org/2000/svg" xmlns:xlink="http://www.w3.org/1999/xlink">
    <title>Group 12</title>
    <defs>
        <linearGradient x1="11.5401854%" y1="33.3897332%" x2="94.2867142%" y2="62.6202194%" id="linearGradient-1">
            <stop stop-color="#FFFFFF" offset="0%"></stop>
            <stop stop-color="#FFFFFF" stop-opacity="0.574328016" offset="100%"></stop>
        </linearGradient>
        <linearGradient x1="29.8753588%" y1="42.103941%" x2="91.9923497%" y2="66.5637714%" id="linearGradient-2">
            <stop stop-color="#FFFFFF" offset="0%"></stop>
            <stop stop-color="#FFFFFF" stop-opacity="0.243990385" offset="100%"></stop>
        </linearGradient>
    </defs>
    <g id="Page-1" stroke="none" stroke-width="1" fill="none" fill-rule="evenodd">
        <g id="Group-12" transform="translate(2.000000, 1.000000)">
            <g id="Group-3" stroke="#FFFFFF">
                <text id="DIGITAL-SUMMIT" stroke-width="2" font-family="Manrope-ExtraLight_ExtraBold, Manrope" font-size="24" font-weight="600" line-spacing="20" fill="#FFFFFF">
                    <tspan x="38" y="33">DIGITAL</tspan>
                    <tspan x="38" y="53">SUMMIT</tspan>
                </text>
                <g id="Group" transform="translate(0.000000, 0.500000)">
                    <polyline id="Path-7" stroke-width="2" points="33.5 32.5 27.5 40 25.5 51 23.5 54.5 18.5 54.5 12 43.5 8 32.5 3 32.5 9.52127266e-13 28 3.5 28 1.5 25 1 25 1 22 7 22 8.71766304 18.7078125 8.5 14.5 11.0265798 14.2823888 12 9.5 12 6 7 6 10.5 0 15 0 16.5 2.5 19.5 0 23.5 0 23.5 2.5 22.5 4.5 22.5 7 25.5 8.5 23.5 10.5 30 18.5 33.5 18.5"></polyline>
                    <polyline id="Path-8" points="30.5 31 24 37.5 22.5 48.5"></polyline>
                    <polyline id="Path-9" points="11.5 31 14.5 39.5 20.5 49.5 20.5 37"></polyline>
                    <polyline id="Path-10" points="8 28.5 14.5 28.5 17 37.5 18 39 18 33.5 22.5 33.5"></polyline>
                    <polyline id="Path-11" points="7.5 25.5 9 25.5 15.5 12.5 15.5 7.5"></polyline>
                    <polyline id="Path-12" points="17 25.5 12.5 25.5 17.5 14.5 17.5 20.5 16.5 23"></polyline>
                    <polyline id="Path-13" points="20.5 24.5 20.5 31 28 31 28 28.5 32.5 28.5"></polyline>
                    <polyline id="Path-14" points="23.5 17.5 23.5 27.5 25.5 27.5 25.5 23.5"></polyline>
                    <polyline id="Path-15" points="25.5 18.5 28 22.5 33.5 22.5"></polyline>
                    <polyline id="Path-16" points="20.5 8 20.5 11.5 22.5 11.5"></polyline>
                    <polyline id="Path-17" points="24 15.5 20.5 15.5 20.5 20.5"></polyline>
                    <circle id="Oval" fill="#D8D8D8" cx="6.5" cy="25.5" r="1"></circle>
                    <circle id="Oval" fill="#D8D8D8" cx="6.5" cy="28.5" r="1"></circle>
                    <circle id="Oval" fill="#D8D8D8" cx="17.5" cy="25.5" r="1"></circle>
                    <circle id="Oval" fill="#D8D8D8" cx="20.5" cy="23.5" r="1"></circle>
                    <circle id="Oval" fill="#D8D8D8" cx="22.5" cy="33.5" r="1"></circle>
                    <circle id="Oval" fill="#D8D8D8" cx="11.5" cy="31.5" r="1"></circle>
                    <circle id="Oval" fill="#D8D8D8" cx="22.5" cy="48.5" r="1"></circle>
                    <circle id="Oval" fill="#D8D8D8" cx="23.5" cy="15.5" r="1"></circle>
                    <circle id="Oval" fill="#D8D8D8" cx="22.5" cy="11.5" r="1"></circle>
                    <circle id="Oval" fill="#D8D8D8" cx="15.5" cy="7.5" r="1"></circle>
                    <circle id="Oval" fill="#D8D8D8" cx="25.5" cy="23.5" r="1"></circle>
                    <circle id="Oval" fill="#D8D8D8" cx="32.5" cy="22.5" r="1"></circle>
                    <circle id="Oval" fill="#D8D8D8" cx="32.5" cy="28.5" r="1"></circle>
                </g>
            </g>
            <g id="Group-11" transform="translate(142.500000, 13.000000)" fill-rule="nonzero">
                <path d="M50.8424022,6.39599942 C52.4477115,6.39599942 53.8809613,6.7389556 55.1233966,7.43264864 C56.3735438,8.13064751 57.3565544,9.11365815 58.0545533,10.3638054 C58.6948853,11.5106687 59.0363647,12.8201195 59.085111,14.2774066 L59.0912025,14.6447997 L59.0912025,20.3683546 L59.0842995,20.7382721 C59.0326979,22.1861989 58.6911794,23.4879685 58.0545533,24.6281944 C57.3565544,25.8783416 56.3735438,26.8613522 55.1233966,27.5593511 C53.8809613,28.2530441 52.4477115,28.5960003 50.8424022,28.5960003 C49.2370928,28.5960003 47.8038431,28.2530441 46.5614078,27.5593511 C45.3112606,26.8613522 44.3282499,25.8783416 43.6302511,24.6281944 C43.3840475,24.1872327 43.1820248,23.7222348 43.0238354,23.2340392 L43.0256019,28.1736003 L27.3200012,28.1736003 L27.3200012,23.3189275 L35.6854677,15.8953867 L35.8877603,15.7116321 C36.2830321,15.3406727 36.5519713,15.0093013 36.6989696,14.7310545 C36.8594318,14.4273225 36.9296016,14.1792219 36.9296016,13.9847997 C36.9296016,13.5921146 36.8547277,13.2662742 36.7104058,12.9909936 C36.5744075,12.7315894 36.3931555,12.538413 36.1510647,12.3926644 C35.9142466,12.2500902 35.6223003,12.1751996 35.2520016,12.1751996 C34.855871,12.1751996 34.5348844,12.2584184 34.2655964,12.4199912 C33.9804787,12.5910618 33.7701147,12.8052976 33.6180209,13.0753951 C33.5005122,13.2840743 33.4347027,13.5005255 33.4183561,13.7370615 L33.4153354,13.9184219 L33.456668,15.1583998 L27.2975862,15.1583998 L27.3267999,13.591567 C27.3778283,12.2287139 27.7168955,11.0120846 28.3498507,9.96040524 C29.0388004,8.81568889 30.0036241,7.92549245 31.2231812,7.30520045 C32.4204631,6.69623813 33.7944368,6.39599942 35.3312016,6.39599942 C36.7695721,6.39599942 38.0801151,6.71520097 39.24377,7.35703752 C40.4151666,8.0031442 41.3455534,8.91232556 42.0180198,10.0681273 C42.4212727,10.7612182 42.7027762,11.516075 42.8638026,12.3280926 C43.0341999,11.6283647 43.2901025,10.9730267 43.6302511,10.3638054 C44.3282499,9.11365815 45.3112606,8.13064751 46.5614078,7.43264864 C47.8038431,6.7389556 49.2370928,6.39599942 50.8424022,6.39599942 Z M50.8424022,12.1751996 C50.4184241,12.1751996 50.0561865,12.2699387 49.7332655,12.4592372 C49.3999437,12.6546328 49.1426352,12.9119413 48.9472397,13.2452631 C48.7894909,13.5143639 48.6974084,13.8107679 48.6710962,14.1474519 L48.6632021,14.3543997 L48.6626669,20.5753636 L48.6680246,20.7734471 C48.689482,21.1281251 48.7820756,21.4385862 48.9472397,21.7203366 C49.1426352,22.0536584 49.3999437,22.310967 49.7332655,22.5063625 C50.0561865,22.695661 50.4184241,22.7904001 50.8424022,22.7904001 C51.2663802,22.7904001 51.6286178,22.695661 51.9515388,22.5063625 C52.2848606,22.310967 52.5421692,22.0536584 52.7375647,21.7203366 C52.8953135,21.4512358 52.9873959,21.1548318 53.0137082,20.8181478 L53.0216023,20.6112 L53.0221375,14.3902361 L53.0167798,14.1921526 C52.9953224,13.8374746 52.9027287,13.5270135 52.7375647,13.2452631 C52.5421692,12.9119413 52.2848606,12.6546328 51.9515388,12.4592372 C51.6286178,12.2699387 51.2663802,12.1751996 50.8424022,12.1751996 Z M42.593,16.697 L42.5337874,16.850466 C42.2494635,17.5186272 41.8479062,18.1367786 41.3301095,18.7062745 L41.1010828,18.9473692 L40.8657221,19.1814522 C40.455568,19.5841489 39.9854656,20.0202367 39.4564392,20.4890484 L37.283,22.395 L42.799769,22.3946144 C42.689628,21.8770192 42.6237656,21.3363613 42.6018263,20.7734978 L42.5936019,20.3472 L42.593,16.697 Z" id="20" fill="url(#linearGradient-1)"></path>
                <path d="M23.8424022,0.39599942 C25.4477115,0.39599942 26.8809613,0.7389556 28.1233966,1.43264864 C29.3072816,2.0936511 30.2515979,3.01025278 30.9411646,4.16727283 C28.7560843,5.57770929 27.2764056,7.18838705 26.5,9 C26.3252197,9.40782082 26.1657134,9.83600708 26.0214812,10.2845588 L26.0221375,8.39023612 L26.0167798,8.1921526 C25.9953224,7.83747464 25.9027287,7.52701348 25.7375647,7.24526309 C25.5421692,6.9119413 25.2848606,6.65463276 24.9515388,6.45923722 C24.6286178,6.26993871 24.2663802,6.17519965 23.8424022,6.17519965 C23.4184241,6.17519965 23.0561865,6.26993871 22.7332655,6.45923722 C22.3999437,6.65463276 22.1426352,6.9119413 21.9472397,7.24526309 C21.7894909,7.51436393 21.6974084,7.81076794 21.6710962,8.14745193 L21.6632021,8.35439974 L21.6626669,14.5753636 L21.6680246,14.7734471 C21.689482,15.1281251 21.7820756,15.4385862 21.9472397,15.7203366 C22.1426352,16.0536584 22.3999437,16.310967 22.7332655,16.5063625 C23.0561865,16.695661 23.4184241,16.7904001 23.8424022,16.7904001 C24.2663802,16.7904001 24.6286178,16.695661 24.9515388,16.5063625 L25.0987256,16.4117125 C25.279385,17.2732817 26.0181101,17.9424601 26.9391243,17.9965588 C26.9781733,17.9988524 27.0172811,18 27.0563973,18 L31.3677786,18.0011432 C31.2727856,18.2152665 31.1683871,18.4243129 31.0545533,18.6281944 C30.3565544,19.8783416 29.3735438,20.8613522 28.1233966,21.5593511 C26.8809613,22.2530441 25.4477115,22.5960003 23.8424022,22.5960003 C22.2370928,22.5960003 20.8038431,22.2530441 19.5614078,21.5593511 C18.3112606,20.8613522 17.3282499,19.8783416 16.6302511,18.6281944 C16.3840475,18.1872327 16.1820248,17.7222348 16.0238354,17.2340392 L16.0256019,22.1736003 L0.320001245,22.1736003 L0.320001245,17.3189275 L8.68546773,9.89538672 L8.88776034,9.71163215 C9.28303212,9.34067272 9.55197127,9.00930126 9.69896956,8.73105451 C9.85943175,8.42732249 9.92960163,8.17922188 9.92960163,7.98479972 C9.92960163,7.5921146 9.85472765,7.26627416 9.71040581,6.9909936 C9.57440748,6.73158939 9.39315552,6.53841296 9.15106467,6.39266438 C8.91424657,6.25009022 8.62230027,6.17519965 8.25200156,6.17519965 C7.85587102,6.17519965 7.53488435,6.25841841 7.26559643,6.41999117 C6.98047871,6.5910618 6.77011466,6.80529759 6.61802092,7.07539509 C6.50051222,7.28407433 6.43470274,7.50052546 6.41835606,7.73706154 L6.41533538,7.91842192 L6.45666797,9.15839977 L0.297586167,9.15839977 L0.326799855,7.59156696 C0.37782834,6.22871387 0.716895521,5.01208464 1.34985072,3.96040524 C2.03880037,2.81568889 3.00362406,1.92549245 4.22318121,1.30520045 C5.42046306,0.696238129 6.79443682,0.39599942 8.33120156,0.39599942 C9.76957214,0.39599942 11.0801151,0.715200967 12.24377,1.35703752 C13.4151666,2.0031442 14.3455534,2.91232556 15.0180198,4.06812727 C15.3636652,4.66220521 15.619862,5.30166216 15.7874114,5.9835981 L15.8635862,6.32699942 L15.9561208,5.98193578 C16.1218409,5.4111997 16.3467939,4.87148979 16.6302511,4.36380537 C17.3282499,3.11365815 18.3112606,2.13064751 19.5614078,1.43264864 C20.8038431,0.7389556 22.2370928,0.39599942 23.8424022,0.39599942 Z M15.593,10.697 L15.5337874,10.850466 C15.2494635,11.5186272 14.8479062,12.1367786 14.3301095,12.7062745 L14.1010828,12.9473692 L13.8657221,13.1814522 C13.455568,13.5841489 12.9854656,14.0202367 12.4564392,14.4890484 L10.283,16.395 L15.799769,16.3946144 C15.689628,15.8770192 15.6237656,15.3363613 15.6018263,14.7734978 L15.5936019,14.3472 L15.593,10.697 Z" id="Combined-Shape" fill="url(#linearGradient-2)"></path>
            </g>
        </g>
    </g>
</svg>