<svg xmlns="http://www.w3.org/2000/svg" width="384" height="215" viewBox="0 0 384 215">
    <defs>
        <filter id="prefix__a" width="124.3%" height="149.9%" x="-12.1%" y="-24.9%" filterUnits="objectBoundingBox">
            <feOffset dy="12" in="SourceAlpha" result="shadowOffsetOuter1"/>
            <feGaussianBlur in="shadowOffsetOuter1" result="shadowBlurOuter1" stdDeviation="25"/>
            <feColorMatrix in="shadowBlurOuter1" result="shadowMatrixOuter1" values="0 0 0 0 0 0 0 0 0 0 0 0 0 0 0 0 0 0 0.147262893 0"/>
            <feMerge>
                <feMergeNode in="shadowMatrixOuter1"/>
                <feMergeNode in="SourceGraphic"/>
            </feMerge>
        </filter>
    </defs>
    <g fill="none" filter="url(#prefix__a)" transform="translate(-51 52)">
        <g>
            <path fill="#58595B" d="M94.426 8.525h.356c2.308.044 4.54.831 6.365 2.245 2.577 2.031 4.084 5.13 4.092 8.41.042 4.152-2.38 7.934-6.167 9.634-1.334.63-2.787.969-4.262.994h-.355c-2.31-.037-4.543-.825-6.365-2.244-.67-.524-1.272-1.13-1.79-1.805-1.49-1.869-2.296-4.189-2.288-6.578.005-2.626.982-5.156 2.742-7.104.594-.67 1.278-1.252 2.032-1.734 1.683-1.127 3.657-1.744 5.683-1.776m-6.862 10.656v.143c.046 3.79 3.115 6.846 6.905 6.876h.27c3.784-.038 6.844-3.092 6.89-6.876v-.143c.018-1.954-.786-3.825-2.216-5.157-1.247-1.207-2.91-1.889-4.646-1.904h-.398c-1.265.029-2.498.402-3.566 1.08-.574.374-1.099.818-1.563 1.321-.643.715-1.127 1.557-1.42 2.472-.244.694-.36 1.425-.342 2.16M128.412 0h.156c.689.03 1.301.448 1.577 1.08.074.206.122.421.142.64v26.383c-.019.72-.475 1.356-1.15 1.606-.22.077-.45.115-.682.114-.73.002-1.383-.452-1.634-1.137-.102-.407-.462-.697-.881-.71-.252.026-.493.12-.696.27-1.628 1.022-3.506 1.573-5.428 1.59h-.313c-2.184-.015-4.309-.71-6.08-1.988-.984-.703-1.835-1.573-2.515-2.572-1.263-1.806-1.929-3.962-1.904-6.166.017-2.19.706-4.323 1.975-6.11.724-1.023 1.635-1.9 2.685-2.586.963-.65 2.03-1.13 3.154-1.42.943-.277 1.917-.435 2.899-.47 2.016.03 3.984.62 5.683 1.706.113.046.233.075.355.085.404-.01.755-.28.867-.668V2.16c-.102-.833.338-1.639 1.094-2.004.204-.082.42-.13.64-.142m-15.743 19.053v.227c.015 3.783 3.052 6.858 6.834 6.92h.37c1.639-.025 3.216-.634 4.446-1.72.49-.416.924-.894 1.293-1.42.713-1.113 1.102-2.402 1.123-3.723v-.227c-.032-1.927-.854-3.756-2.274-5.058-1.25-1.16-2.884-1.818-4.589-1.847h-.37c-2.315.04-4.453 1.248-5.683 3.21-.721 1.099-1.11 2.381-1.122 3.695M153.446 0h.142c.692.022 1.307.444 1.578 1.08.08.204.128.42.142.64v26.383c-.013.718-.464 1.355-1.137 1.606-.232.084-.477.128-.725.128-.73-.004-1.385-.455-1.648-1.137-.096-.405-.45-.696-.866-.71-.257.024-.503.117-.71.27-1.592.995-3.424 1.54-5.3 1.577h-.313c-2.184-.016-4.31-.712-6.081-1.99-.983-.702-1.835-1.572-2.515-2.571-1.267-1.805-1.937-3.961-1.918-6.166.024-2.19.712-4.32 1.975-6.11.722-1.02 1.634-1.894 2.685-2.571.96-.655 2.028-1.135 3.154-1.421.928-.245 1.883-.374 2.842-.384 2.017.024 3.986.615 5.683 1.705.114.045.234.074.355.085.408-.007.764-.277.881-.667.006-.08.006-.161 0-.242V2.26c-.094-.836.35-1.64 1.109-2.003.205-.126.43-.213.667-.256m-15.799 19.039v.227c.026 1.937.842 3.78 2.26 5.1 1.25 1.138 2.87 1.785 4.56 1.82h.455c1.64-.028 3.215-.637 4.447-1.72.486-.416.916-.894 1.278-1.42.722-1.109 1.111-2.4 1.123-3.723v-.227c-.038-3.781-3.069-6.85-6.848-6.934h-.384c-3.755.106-6.76 3.15-6.82 6.905M162.426 8.525c.56.007 1.099.225 1.506.61.379.373.576.892.54 1.422v9.334c-.222 1.7.496 3.386 1.875 4.405.251.214.523.405.81.568 1.091.683 2.35 1.052 3.637 1.066h.37c1.423-.01 2.809-.462 3.964-1.293.559-.372 1.061-.821 1.492-1.336.387-.568.649-1.212.767-1.89.076-.503.11-1.011.1-1.52v-9.576c.032-.74.518-1.385 1.221-1.62.267-.087.544-.14.824-.156.637 0 1.242.275 1.663.753.326.397.48.91.426 1.42v17.05c.068.86-.45 1.66-1.265 1.947-.267.083-.544.13-.824.142-.799-.027-1.528-.461-1.932-1.15-.22-.156-.483-.24-.753-.242-.547.132-1.076.328-1.577.582-.912.357-1.868.586-2.842.682-.414.06-.832.093-1.25.1-2.87.05-5.659-.961-7.829-2.842-.911-.822-1.65-1.817-2.173-2.927-.588-1.276-.86-2.674-.796-4.078v-9.334c-.069-.686.256-1.351.838-1.72.366-.255.804-.39 1.25-.383M188.498 8.525c.582.041 1.11.358 1.42.852.256.611.47.91.64.91.17 0 .113 0 .326.085h.086c.548-.137 1.064-.378 1.52-.71 1.491-.731 3.127-1.12 4.788-1.137 2.118.023 4.182.665 5.939 1.847 2.87 1.985 4.606 5.234 4.66 8.724v.099c-.005 2.43-.848 4.783-2.387 6.664-.537.681-1.163 1.288-1.861 1.804-3.517 2.669-8.323 2.867-12.048.497-.125-.064-.26-.107-.398-.128h-.142c-.554.1-.839.398-.839.881v7.317c.1.762-.285 1.505-.966 1.862-.244.163-.53.252-.824.256-.786.01-1.486-.5-1.719-1.25-.077-.283-.111-.575-.1-.868V10.656c-.091-.813.334-1.596 1.066-1.96.255-.098.524-.15.796-.157m1.747 10.613c-.034 1.863.678 3.662 1.978 4.996 1.3 1.334 3.08 2.094 4.942 2.108h.241c1.85-.017 3.615-.775 4.902-2.102 1.385-1.415 2.117-3.342 2.02-5.32-.097-1.976-1.015-3.823-2.531-5.095-.953-.73-2.07-1.219-3.254-1.42-.32-.054-.642-.087-.966-.1h-.497c-1.312.045-2.586.454-3.68 1.18-1.334.896-2.334 2.21-2.842 3.736-.19.675-.296 1.372-.313 2.074" transform="translate(139 36)"/>
            <path fill="#5FBA46" d="M22.221 19.18c-.008 5.876-4.775 10.634-10.65 10.628C5.694 29.803.934 25.038.937 19.162.94 13.286 5.704 8.525 11.58 8.525c5.877 0 10.641 4.764 10.641 10.642" transform="translate(139 36)"/>
            <path fill="#F79722" d="M49.898 19.18c-.007 5.876-4.775 10.634-10.65 10.628-5.876-.005-10.636-4.77-10.633-10.646.003-5.876 4.766-10.637 10.642-10.637 5.877 0 10.641 4.764 10.641 10.642" transform="translate(139 36)"/>
            <path fill="#F8A51B" d="M49.898 19.18c-.007 5.876-4.775 10.634-10.65 10.628-5.876-.005-10.636-4.77-10.633-10.646.003-5.876 4.766-10.637 10.642-10.637 5.877 0 10.641 4.764 10.641 10.642" transform="translate(139 36)"/>
            <path fill="#ED3028" d="M77.576 19.18c0 4.312-2.598 8.199-6.582 9.847-3.983 1.649-8.568.734-11.614-2.316-3.047-3.05-3.955-7.637-2.301-11.618 1.654-3.981 5.544-6.574 9.855-6.568 2.825 0 5.534 1.123 7.53 3.122 1.996 1.999 3.115 4.709 3.112 7.534" transform="translate(139 36)"/>
        </g>
    </g>
</svg>
