<?xml version="1.0" encoding="UTF-8"?>
<svg width="483px" height="333px" viewBox="0 0 483 333" version="1.1" xmlns="http://www.w3.org/2000/svg" xmlns:xlink="http://www.w3.org/1999/xlink">
    <!-- Generator: sketchtool 64 (101010) - https://sketch.com -->
    <title>268B62E7-03C8-458F-AA0B-D59EC7AAA13C@3x</title>
    <desc>Created with sketchtool.</desc>
    <g id="UI-designs" stroke="none" stroke-width="1" fill="none" fill-rule="evenodd">
        <g id="Registration---1" transform="translate(-143.000000, -209.000000)" fill-rule="nonzero">
            <g id="undraw_forms_78yw" transform="translate(143.000000, 209.000000)">
                <path d="M388.482575,198.007174 L382.839462,205.757689 C381.259754,207.927334 378.351004,208.622993 375.971512,207.400233 L375.971512,207.400233 C374.245579,206.513322 373.117353,204.769727 373.008612,202.821276 C372.899872,200.872825 373.826988,199.012867 375.443366,197.936734 L382.639613,193.145709 L403.21702,172.420216 L405.503408,165 L421,165 L412.870639,182.654999 L388.482575,198.007174 Z" id="Path" fill="#FFB8B8"></path>
                <path d="M217.727268,198 C216.221776,198.001772 215,199.215186 215,200.712552 L215,329.287448 C215,330.784814 216.221776,331.998228 217.727268,332 L392.272726,332 C393.778221,331.998231 395,330.784816 395,329.287448 L395,200.712552 C395,199.215184 393.778221,198.001769 392.272726,198 L217.727268,198 Z" id="Path" fill="#E6E6E6"></path>
                <polygon id="Path" fill="#FFFFFF" points="223 324 388 324 388 205 223 205"></polygon>
                <path d="M364.466668,239 L265.533332,239 C263.581926,239 262,240.567003 262,242.5 C262,244.432997 263.581926,246 265.533332,246 L364.466668,246 C366.418074,246 368,244.432997 368,242.5 C368,240.567003 366.418074,239 364.466668,239 L364.466668,239 Z" id="Path" fill="#E6E6E6"></path>
                <path d="M265.533332,261 C263.581926,261 262,262.567003 262,264.5 C262,266.432997 263.581926,268 265.533332,268 L364.466668,268 C366.418074,268 368,266.432997 368,264.5 C368,262.567003 366.418074,261 364.466668,261 L265.533332,261 Z" id="Path" fill="#E6E6E6"></path>
                <path d="M265.529086,283 C263.57929,283.002489 262,284.568763 262,286.5 C262,288.431237 263.57929,289.997511 265.529086,290 L364.470914,290 C366.42071,289.997511 368,288.431237 368,286.5 C368,284.568763 366.42071,283.002489 364.470914,283 L265.529086,283 Z" id="Path" fill="#E6E6E6"></path>
                <circle id="Oval" fill="#18439A" cx="246.5" cy="243.5" r="4.5"></circle>
                <circle id="Oval" fill="#E6E6E6" cx="246.5" cy="264.5" r="4.5"></circle>
                <circle id="Oval" fill="#E6E6E6" cx="246.5" cy="286.5" r="4.5"></circle>
                <path d="M325,242.499807 L325,242.499807 C325,244.432694 323.419485,245.999609 321.46982,245.999609 L265.657214,245.999609 C263.854238,246.025823 262.307229,244.731364 262.03043,242.9649 C261.897287,241.964839 262.205066,240.956377 262.875108,240.197245 C263.545151,239.438113 264.512532,239.001868 265.530021,239 L321.46982,239 C322.406084,239 323.304001,239.368727 323.966038,240.025068 C324.628076,240.68141 325,241.571601 325,242.499807 L325,242.499807 Z" id="Path" fill="#18439A"></path>
                <circle id="Oval" fill="#E6E6E6" cx="305" cy="169" r="14"></circle>
                <circle id="Oval" fill="#FFFFFF" cx="305" cy="169" r="7"></circle>
                <path d="M463,310.662163 L455.888888,314 L445.083143,293.241661 C438.411985,282.909931 434.057631,270.528546 431,257 L442.174598,257.770272 C448.827192,267.369803 453.757005,276.994496 455.345611,286.668039 L463,310.662163 Z" id="Path" fill="#FFB8B8"></path>
                <polygon id="Path" fill="#2F2E41" points="444 261 430 261 430 236.056839 441.250195 234"></polygon>
                <path d="M425.927757,167 C419.031287,165.679012 411.975839,165.411929 405,166.207782 L409.090924,145.707522 C409.894888,141.678729 413.16302,138.611732 417.218053,138.080571 L417.218053,138.080571 C420.124306,137.699887 423.04355,138.681511 425.136369,140.743183 C427.229189,142.804856 428.263684,145.718126 427.94239,148.645299 L425.927757,167 Z" id="Path" fill="#18439A"></path>
                <circle id="Oval" fill="#FFB8B8" cx="416" cy="113" r="12"></circle>
                <path d="M434,126.659785 L418.203824,138 L414,117.768044 L425.847116,113 C426.32714,118.304192 429.159328,122.819017 434,126.659785 Z" id="Path" fill="#FFB8B8"></path>
                <path d="M428,111.36328 C427.121357,109.571905 426.021423,110.814991 425.044362,113 L423.642746,107.453298 L421.960805,106.898628 L420.83951,102.46129 C415.696429,101.246177 411.569303,103.788246 406.264064,106.61237 L404.242116,111.363303 L404.242116,111.363303 C402.606302,108.058512 402.585198,104.195645 404.184807,100.873553 C405.784416,97.5514612 408.829661,95.1337472 412.454274,94.3081675 C413.334563,94.1124677 414.2333,94.0094004 415.135497,94.0006844 L415.135497,94.0006844 C418.603966,93.9649381 421.937026,95.3308084 424.364068,97.782504 C426.791109,100.2342 428.101998,103.559451 427.993654,106.989454 L428,111.36328 Z" id="Path" fill="#2F2E41"></path>
                <path d="M464.693495,319.874062 L440.455933,327.916768 C438.762953,328.284993 437.046237,327.404911 436.329847,325.801513 L436.329847,325.801513 C435.589908,324.142429 436.128699,322.182343 437.607246,321.154416 C442.387454,317.825223 446.196954,314.273512 447.943371,310.248693 C449.558376,303.574983 451.38373,303.559821 453.366859,308.539047 C458.843531,311.83486 457.958843,309.195165 461.370069,305.094137 L466.628816,315.220849 C467.078534,316.086874 467.121791,317.112686 466.746629,318.014712 C466.371467,318.916738 465.617625,319.599429 464.693495,319.874062 L464.693495,319.874062 Z" id="Path" fill="#2F2E41"></path>
                <path d="M407.084212,326 L399,322.459146 L401.897804,301.724854 L407.589472,261 L423,263.023347 C422.668035,277.165428 419.158785,291.051065 412.732743,303.649523 L407.084212,326 Z" id="Path" fill="#FFB8B8"></path>
                <path d="M433.827165,267 L407,261.64904 L414.08642,224.192308 L412.821007,214 L448,214 C446.716744,227.195411 440.595466,246.677343 433.827165,267 Z" id="Path" fill="#2F2E41"></path>
                <path d="M449.741058,217 C436.637319,213.700643 423.747352,213.233752 411.17669,217 C408.82524,192.896395 408.178327,169.912003 410.235805,148.703358 C410.72597,143.567633 413.220622,138.82774 417.184312,135.501044 L432.118932,123 L443.20835,128.51564 C446.126279,129.966956 447.99546,132.907207 448.062793,136.151755 C450.483772,168.217062 452.340174,198.730606 449.741058,217 Z" id="Path" fill="#18439A"></path>
                <path d="M462.580157,213.5589 L464.774148,221.379828 C465.235895,223.025827 464.98263,224.794464 464.078529,226.237577 C463.174427,227.68069 461.706254,228.65979 460.046033,228.926778 L460.046033,228.926778 C458.217942,229.220774 456.360786,228.619371 455.035081,227.304081 C453.709376,225.988791 453.070435,224.113706 453.311097,222.244751 L454.297883,214.58137 L449.027366,175.727495 L442,160.390439 L456.054732,154 L461.827247,173.171322 L462.580157,213.5589 Z" id="Path" fill="#FFB8B8"></path>
                <path d="M404.313137,332.891785 L379.478356,327.090944 C377.842255,326.52295 376.821855,324.892538 377.025855,323.172299 L377.025855,323.172299 C377.238076,321.393021 378.697707,320.023518 380.486441,319.925396 C386.272491,319.603227 391.341406,318.590624 394.886207,316.110355 C399.668195,311.333665 401.237647,312.267317 400.397479,317.484095 C403.403984,323.096063 403.991979,320.416836 409,318.735625 L408.339736,329.980833 C408.283271,330.94251 407.797637,331.827866 407.01708,332.392154 C406.236524,332.956442 405.243727,333.13989 404.313137,332.891785 Z" id="Path" fill="#2F2E41"></path>
                <path d="M458,155.676814 C451.928216,156.168981 445.304439,159.628756 438.511191,164 L433.300364,143.878841 C432.276309,139.924549 433.926291,135.767881 437.403506,133.542119 L437.403506,133.542119 C439.895639,131.946902 442.994602,131.565865 445.809302,132.508573 C448.624003,133.451281 450.842549,135.613274 451.827007,138.372881 L458,155.676814 Z" id="Path" fill="#18439A"></path>
                <path d="M2.69699979,44 C1.20820622,44.001759 0,45.2061467 0,46.6923664 L0,174.307663 C0,175.793883 1.20820622,176.99827 2.69699979,177 L175.30303,177 C176.791812,176.998254 178,175.793871 178,174.307663 L178,46.692337 C178,45.2061288 176.791812,44.0017458 175.30303,44 L2.69699979,44 Z" id="Path" fill="#E6E6E6"></path>
                <polygon id="Path" fill="#FFFFFF" points="7 170 172 170 172 51 7 51"></polygon>
                <path d="M23.501939,107 C21.5678715,107 20,108.567003 20,110.5 C20,112.432997 21.5678715,114 23.501939,114 L155.49806,114 C156.749183,114 157.905268,113.332904 158.530829,112.25 C159.15639,111.167096 159.15639,109.832904 158.530829,108.75 C157.905268,107.667096 156.749183,107 155.49806,107 L23.501939,107 Z" id="Path" fill="#E6E6E6"></path>
                <path d="M23.5019365,128 C21.5678704,128 20,129.567003 20,131.5 C20,133.432997 21.5678704,135 23.5019365,135 L155.498063,135 C157.43213,135 159,133.432997 159,131.5 C159,129.567003 157.43213,128 155.498063,128 L23.5019365,128 Z" id="Path" fill="#E6E6E6"></path>
                <path d="M82.5,151 C80.5670043,151 79,152.567003 79,154.5 C79,156.432997 80.5670043,158 82.5,158 L96.5,158 C98.4329957,158 100,156.432997 100,154.5 C100,152.567003 98.4329957,151 96.5,151 L82.5,151 Z" id="Path" fill="#18439A"></path>
                <path d="M70.0857814,63 C69.4863655,63.0005756 69.0005902,63.4743574 69,64.0589741 L69,90.9410259 C69.0005902,91.5256426 69.4863655,91.9994244 70.0857814,92 L107.914219,92 C108.513634,91.9994244 108.99941,91.5256426 109,90.9410259 L109,64.0589741 C108.99941,63.4743574 108.513634,63.0005756 107.914219,63 L70.0857814,63 Z" id="Path" fill="#18439A"></path>
                <circle id="Oval" fill="#FFFFFF" cx="89" cy="74" r="6"></circle>
                <path d="M99,89.1874678 C99.0020429,90.1653565 98.7849221,91.1296239 98.3666971,92 L80.634823,92 C79.7159291,90.0816895 79.7992035,87.7920561 80.8546687,85.9553259 C81.910134,84.1185958 83.7858582,82.9991623 85.8066151,83 L93.1948935,83 C94.7347587,82.9990719 96.2118061,83.6506639 97.3006597,84.8112391 C98.3895134,85.9718142 99.000845,87.5461604 99,89.1874678 Z" id="Path" fill="#FFFFFF"></path>
                <circle id="Oval" fill="#FFFFFF" cx="89" cy="74" r="6"></circle>
                <path d="M99,89.1874678 C99.0020429,90.1653565 98.7849221,91.1296239 98.3666971,92 L80.634823,92 C79.7159291,90.0816895 79.7992035,87.7920561 80.8546687,85.9553259 C81.910134,84.1185958 83.7858582,82.9991623 85.8066151,83 L93.1948935,83 C94.7347587,82.9990719 96.2118061,83.6506639 97.3006597,84.8112391 C98.3895134,85.9718142 99.000845,87.5461604 99,89.1874678 Z" id="Path" fill="#FFFFFF"></path>
                <circle id="Oval" fill="#E6E6E6" cx="89" cy="14" r="14"></circle>
                <circle id="Oval" fill="#18439A" cx="89" cy="14" r="7"></circle>
                <polygon id="Path" fill="#3F3D56" points="482.767597 332 145 332 145 331 483 331"></polygon>
            </g>
        </g>
    </g>
</svg>