<svg xmlns="http://www.w3.org/2000/svg" width="102" height="51" viewBox="0 0 102 51">
    <g fill="none">
        <path fill="#BD2227" d="M0.636 0.588H101.36399999999999V50.952H0.636z"/>
        <path fill="#FFF" d="M20.988 30.648L17.592 38.592 16.224 38.592 14.184 33.96 12.096 38.592 10.716 38.592 7.392 30.648 9.84 30.648 11.472 34.992 13.332 30.648 15.024 30.648 16.86 34.992 18.564 30.648 20.988 30.648zM30.9 38.484h-2.4l-.636-1.584h-3.432l-.648 1.584h-2.4l3.468-7.836h2.616l3.456 7.836H30.9zm-3.6-2.952l-1.2-2.856-1.2 2.856h2.4zM41.448 34.704c.03.675-.119 1.345-.432 1.944-.267.46-.617.867-1.032 1.2-.701.487-1.548.72-2.4.66h-4.2v-7.86h3.264c.401-.002.802.022 1.2.072.318.041.632.113.936.216.281.056.555.145.816.264.187.107.364.232.528.372.261.244.487.522.672.828.212.322.374.674.48 1.044.124.413.184.841.18 1.272l-.012-.012zm-2.4-.096c.033-.523-.097-1.042-.372-1.488-.203-.332-.511-.585-.876-.72-.335-.12-.688-.18-1.044-.18h-1.008v4.644h1.008c.58.026 1.155-.13 1.644-.444.524-.446.782-1.13.684-1.812h-.036zM52.356 38.496L49.992 38.496 49.992 35.424 46.44 35.424 46.44 38.496 44.064 38.496 44.064 30.648 46.44 30.648 46.44 33.528 49.992 33.528 49.992 30.648 52.356 30.648 52.356 38.496zM68.196 30.648L64.8 38.592 63.432 38.592 61.392 33.96 59.304 38.592 57.924 38.592 54.588 30.648 57.036 30.648 58.668 34.992 60.54 30.648 62.232 30.648 64.068 34.992 65.772 30.648 68.196 30.648zM78.108 38.484h-2.4L75.06 36.9h-3.42l-.66 1.584h-2.4l3.48-7.836h2.604l3.468 7.836h-.024zm-3.6-2.952l-1.2-2.856-1.2 2.856h2.4zM89.112 38.496L87 38.496 82.932 34.116 82.932 38.496 80.592 38.496 80.592 30.648 82.692 30.648 86.748 34.992 86.748 30.648 89.112 30.648 89.112 38.496zM92.244 38.496L94.608 38.496 94.608 30.648 92.244 30.648 92.244 38.496zM21.336 47.196L21.336 42.108 24.048 42.108 24.048 42.744 22.068 42.744 22.068 44.232 23.964 44.232 23.964 44.88 22.068 44.88 22.068 47.196 21.336 47.196zM26.232 44.652c-.032-.688.2-1.362.648-1.884.454-.514 1.115-.796 1.8-.768.687-.03 1.351.246 1.812.756.863 1.112.863 2.668 0 3.78-1.007.963-2.593.963-3.6 0-.442-.53-.668-1.207-.636-1.896l-.024.012zm.768 0c-.02.492.124.977.408 1.38.293.407.772.637 1.272.612.516.035 1.014-.196 1.32-.612.275-.406.414-.89.396-1.38.023-.495-.116-.983-.396-1.392-.308-.38-.77-.602-1.26-.602s-.952.221-1.26.602c-.288.406-.436.895-.42 1.392H27zM37.632 42.108v2.976c.045.59-.14 1.175-.516 1.632-.38.398-.916.604-1.464.564-.547.035-1.082-.17-1.464-.564-.367-.462-.55-1.043-.516-1.632v-2.976h.732v2.88c0 1.104.42 1.656 1.2 1.656s1.2-.552 1.2-1.656v-2.88h.828zM40.416 47.196L40.416 42.108 41.412 42.108 43.656 46.212 43.668 46.212 43.668 42.108 44.4 42.108 44.4 47.196 43.464 47.196 41.16 43.008 41.148 43.008 41.148 47.196 40.416 47.196zM47.232 47.196v-5.088h1.5c.7-.03 1.386.206 1.92.66.528.46.82 1.136.792 1.836.048.717-.214 1.421-.72 1.932-.554.47-1.268.706-1.992.66h-1.5zm.72-4.452v3.816h.768c.533.08 1.072-.095 1.457-.472.384-.378.569-.914.499-1.448.033-.535-.163-1.059-.54-1.44-.357-.333-.832-.51-1.32-.492l-.864.036zM53.328 47.196l2.172-5.088h.768l2.148 5.088H57.6l-.516-1.284h-2.472l-.528 1.284h-.756zm3.6-1.884l-1.008-2.52-1.02 2.52h2.028zM61.632 47.196L61.632 42.744 60.048 42.744 60.048 42.108 63.948 42.108 63.948 42.744 62.364 42.744 62.364 47.196 61.632 47.196zM66.132 47.196L66.132 42.108 66.864 42.108 66.864 47.196 66.132 47.196zM69.36 44.652c-.032-.688.2-1.362.648-1.884.476-.48 1.124-.751 1.8-.751.676 0 1.324.27 1.8.751.863 1.112.863 2.668 0 3.78-1.007.963-2.593.963-3.6 0-.442-.53-.668-1.207-.636-1.896h-.012zm.768 0c-.014.492.129.975.408 1.38.312.386.782.61 1.278.61s.966-.224 1.278-.61c.275-.406.414-.89.396-1.38.02-.496-.124-.985-.408-1.392-.31-.381-.775-.602-1.266-.602s-.956.221-1.266.602c-.288.406-.436.895-.42 1.392zM76.68 47.196L76.68 42.108 77.664 42.108 79.92 46.212 79.932 46.212 79.932 42.108 80.664 42.108 80.664 47.196 79.728 47.196 77.424 43.008 77.4 43.008 77.4 47.196 76.68 47.196zM23.616 9.9L7.392 7.836 50.256 28.932zM36.42 9.504L23.52 6 50.244 28.68zM78.384 9.864L94.608 7.752 51.804 28.98zM65.604 9.516L78.504 6.024 51.78 28.704zM51.66 28.416L66.996 4.248 56.64 9.132l-1.908 7.74-3.6-7.056-3.6 7.056-1.92-7.74L35.16 4.248l15.336 24.168c.15-.158.358-.248.576-.252.22.007.43.097.588.252z"/>
    </g>
</svg>
