<svg xmlns="http://www.w3.org/2000/svg" width="34" height="34" viewBox="0 0 34 34">
    <g fill="none" fill-rule="evenodd">
        <path d="M0 0L34 0 34 34 0 34z"/>
        <path fill="#FFF" fill-rule="nonzero" d="M29.75 4.25c.782 0 1.417.634 1.417 1.417v9.916h-2.834v-8.5H5.667v19.834h8.5v2.833H4.25c-.782 0-1.417-.634-1.417-1.417V5.667c0-.783.635-1.417 1.417-1.417h25.5zm0 14.167c.782 0 1.417.634 1.417 1.416v8.5c0 .783-.635 1.417-1.417 1.417H18.417c-.783 0-1.417-.634-1.417-1.417v-8.5c0-.782.634-1.416 1.417-1.416H29.75zm-13.458-8.5l-2.895 2.894 3.188 3.187-2.003 2.004-3.188-3.188L8.5 17.708V9.917h7.792z"/>
    </g>
</svg>
