<svg xmlns="http://www.w3.org/2000/svg" width="20" height="11" viewBox="0 0 20 11">
    <path fill="#001663" d="M10.003 6.432c1.169 0 2.319-1.796 2.319-3.623C12.322.902 11.059.5 10.003.5 8.941.5 7.684.902 7.684 2.809c0 1.827 1.147 3.623 2.32 3.623zm3.888 1.36c-.488-.141-1.06-.371-1.691-.684-.3-.154-.619-.322-.94-.505-.376.274-.8.437-1.257.437-.456 0-.881-.163-1.26-.437-.25.144-.574.325-.943.505-.172.085-.338.162-.494.233-.44.198-.837.348-1.194.452-1.293.38-1.621 2.016-1.7 2.707h11.179c-.082-.688-.403-2.324-1.7-2.707zm2.018-1.635c.238 0 .47-.103.682-.28.009-.006.015-.015.025-.021.534-.464.943-1.39.943-2.333 0-1.364-.9-1.65-1.653-1.65-.756 0-1.656.286-1.656 1.65 0 .945.416 1.878.953 2.339.225.183.466.295.706.295zm2.891 1.17c-.363-.104-.778-.273-1.281-.518-.256-.127-.485-.253-.663-.354-.284.195-.606.313-.944.313-.343 0-.662-.115-.946-.313-.222.127-.444.248-.663.354-.212.107-.415.198-.603.275.134.05.262.089.384.124 1.05.31 1.594 1.184 1.875 1.993H20c-.072-.54-.328-1.615-1.2-1.875zM3.41 5.872c.212.178.446.281.68.281.241 0 .479-.106.698-.29l.012-.011c.537-.464.947-1.39.947-2.333 0-1.364-.9-1.65-1.656-1.65-.754 0-1.654.286-1.654 1.65 0 .94.407 1.866.941 2.33.013.009.022.015.031.023zm2.512 1.338c.122-.033.253-.077.384-.124-.187-.08-.387-.171-.606-.275-.256-.124-.481-.25-.662-.354-.285.195-.604.313-.944.313-.34 0-.66-.115-.944-.313-.169.098-.397.224-.666.354-.493.245-.915.414-1.275.517C.331 7.586.075 8.661 0 9.204h4.044c.281-.812.825-1.686 1.878-1.993z"/>
</svg>
