<svg xmlns="http://www.w3.org/2000/svg" width="31" height="24" viewBox="0 0 31 24">
    <g fill="none">
        <g>
            <path fill="#EBE7F2" d="M7.197 9.775l.222-.222c.434-.433 1.136-.433 1.57 0 .433.434.433 1.136 0 1.57l-.132.132 1.08-1.08c.218-.218.505-.326.79-.324L5.4 4.52 4.093 5.829l2.03 2.031 1.074 1.916z" transform="translate(.36 5.328)"/>
            <path fill="#000" d="M16.827 15.258l-.552-.552-.042.054c.19.41.115.913-.223 1.251-.269.269-.64.37-.988.307l-.12.154.355.356c.434.433 1.136.433 1.57 0 .433-.434.433-1.136 0-1.57zM18.687 13.978l-.042.01c-.253.061-.455.24-.575.47-.06.117-.144.225-.249.318-.443.395-1.128.347-1.548-.072l-.113-.113.957.956c.433.434 1.136.434 1.57 0 .433-.433.433-1.136 0-1.57z" transform="translate(.36 5.328)"/>
            <path fill="#000" d="M20.447 14.167c-.218.216-.502.325-.785.325-.281 0-.562-.106-.778-.317l-.815-.815c.434.424 1.13.42 1.56-.01.093-.093.167-.198.22-.31.104-.223.298-.39.54-.433l.058-.01c.433.434.433 1.136 0 1.57z" transform="translate(.36 5.328)"/>
            <path fill="#000" d="M22.36 12.941c-.216.218-.5.326-.784.326-.284 0-.57-.108-.785-.326l-.79-.789c.435.383 1.104.4 1.524-.006.105-.1.184-.216.242-.34.107-.234.315-.404.569-.431l.024-.003c.028.027.055.057.078.088.153.188.236.416.245.645.016.3-.092.606-.323.836zM8.99 11.123l-.049.048.048-.048zM8.941 11.171c-.433.434-1.136.434-1.57 0-.433-.433-.433-1.136 0-1.57L6.304 10.67c-.434.433-.434 1.136 0 1.57.433.433 1.136.433 1.57 0L8.94 11.17zM12.002 15.96c-.421-.42-.433-1.094-.038-1.53l-.04.038-.99.99c-.433.434-.433 1.137 0 1.57.434.433 1.136.433 1.57 0l.99-.99.038-.04c-.436.396-1.11.383-1.53-.037z" transform="translate(.36 5.328)"/>
            <path fill="#000" d="M10.177 13.075c-.434.434-1.137.434-1.57 0-.433-.433-.433-1.136 0-1.57L7.54 12.574c-.434.434-.434 1.137 0 1.57.433.434 1.136.434 1.57 0l1.067-1.068z" transform="translate(.36 5.328)"/>
            <path fill="#000" d="M12.567 13.825l-.82.82c-.434.434-1.137.434-1.57 0-.434-.433-.434-1.136 0-1.57l.82-.82-1.888 1.888c-.433.434-.433 1.137 0 1.57.434.434 1.136.434 1.57 0l1.888-1.888z" transform="translate(.36 5.328)"/>
            <path fill="#FFF" d="M6.382 3.539L3.557 6.363c-.099.1-.26.1-.358 0L.074 3.24c-.099-.1-.099-.26 0-.358L2.9.056l3.483 3.483zM25.53 5.958l-2.124-2.125L26.89.35l2.125 2.125c.099.099.099.26 0 .358l-3.125 3.125c-.099.099-.26.099-.358 0z" transform="translate(.36 5.328)"/>
            <path fill="#EBE7F2" d="M23.772 4.199L23.406 3.833 19.083 8.157 21.144 10.218 23.239 6.983 24.897 5.325z" transform="translate(.36 5.328)"/>
        </g>
        <path fill="#000" d="M29.628 7.549L22.462.382c-.116-.116-.27-.18-.434-.18-.164 0-.318.064-.433.18L18.47 3.507c-.116.116-.18.27-.18.434 0 .163.064.317.18.433l.176.176-1.796 1.796h-2.316c-.414 0-.802.16-1.095.453l-.003.003-1.071-.422-1.314-1.313.287-.287c.116-.116.18-.27.18-.434 0-.164-.064-.318-.18-.434L8.213.788c-.115-.116-.27-.18-.433-.18-.164 0-.318.064-.434.18L.18 7.954c-.24.24-.24.628 0 .867l3.124 3.125c.12.12.277.18.434.18.157 0 .314-.06.434-.18l.28-.281 1.742 1.741.444.794c.066.117.189.184.315.184.06 0 .12-.015.175-.046.174-.098.236-.317.139-.49l-.47-.837c-.015-.029-.035-.055-.059-.079l-1.776-1.776 5.58-5.58 1.367 1.367c.035.035.076.062.122.08l.85.334-2.506 2.506c-.508.509-.593 1.3-.201 1.882.252.375.651.615 1.094.657.445.044.879-.113 1.193-.427l2.481-2.481L21.25 15.8c.068.068.16.106.255.106.012 0 .025 0 .038-.002.108-.012.205-.071.264-.162l2.074-3.203 1.378-1.377.378.378c.12.12.277.18.434.18.157 0 .314-.06.434-.18l3.124-3.124c.116-.116.18-.27.18-.434 0-.164-.064-.318-.18-.433zM.764 8.388L7.78 1.372l2.973 2.974-7.015 7.015L.764 8.388zm22.58 3.669c-.018.018-.034.037-.047.058l-1.854 2.862-6.246-6.247c-.068-.067-.16-.105-.255-.105s-.187.038-.254.105l-2.736 2.736c-.162.162-.385.242-.614.22-.232-.023-.433-.144-.567-.343-.2-.297-.153-.705.113-.97l2.897-2.897v-.001l.167-.167c.157-.156.365-.242.586-.242h2.465c.095 0 .187-.038.254-.106l1.901-1.901 5.594 5.594-1.404 1.404zm2.726-1.1L19.055 3.94 22.028.967l7.016 7.015-2.974 2.974zm-12.682 8.19c.354-.568.286-1.326-.206-1.818-.22-.22-.492-.354-.776-.406.261-.546.168-1.222-.285-1.674-.277-.277-.646-.43-1.039-.43-.393 0-.762.153-1.04.43l-.054.055c-.065-.254-.195-.487-.385-.677-.573-.573-1.505-.573-2.079 0L6.41 15.742c-.573.573-.573 1.506 0 2.08.245.244.555.383.876.42-.16.506-.041 1.083.36 1.484.286.286.663.43 1.04.43.034 0 .069-.003.104-.006-.002.035-.005.07-.005.106 0 .393.153.762.43 1.04.287.286.664.43 1.04.43.121 0 .242-.017.36-.047.025.34.166.672.425.931.287.287.663.43 1.04.43.376 0 .753-.143 1.039-.43l.99-.99c.278-.278.431-.647.431-1.04 0-.392-.153-.761-.43-1.039-.2-.2-.45-.335-.72-.395zm-6.47-2.896l1.116-1.115c.146-.146.338-.22.53-.22s.384.074.53.22c.142.141.22.33.22.53s-.078.389-.22.53L7.98 17.313c-.293.292-.768.293-1.061 0-.292-.292-.292-.768 0-1.06zm1.236 2.966c-.292-.293-.292-.769 0-1.061l2.398-2.398c.141-.142.33-.22.53-.22s.389.078.53.22c.293.293.293.768 0 1.06l-2.397 2.399c-.293.292-.769.292-1.061 0zm1.57 1.57c-.293-.293-.293-.769 0-1.061l1.888-1.888c.146-.147.338-.22.53-.22s.384.073.53.22c.293.292.293.768 0 1.06l-1.887 1.888c-.293.293-.769.293-1.061 0zm3.876.324l-.99.99c-.293.293-.769.293-1.061 0-.293-.292-.293-.768 0-1.06l.99-.99c.142-.143.33-.22.53-.22s.39.078.53.22c.143.14.22.33.22.53s-.078.388-.22.53zm9.485-4.541c.19.236.306.54.318.85.021.406-.135.81-.428 1.104-.276.278-.645.43-1.04.43-.157 0-.31-.025-.455-.072-.037.317-.176.625-.419.867-.28.279-.649.431-1.04.431-.099 0-.197-.01-.293-.03-.014.357-.155.709-.427.98-.277.278-.646.43-1.04.43-.135 0-.268-.019-.396-.054-.03.33-.171.652-.423.905-.287.286-.663.43-1.04.43-.376 0-.753-.144-1.04-.43l-.355-.356c-.14-.14-.14-.368 0-.509.14-.14.369-.14.51 0l.355.356c.292.292.768.292 1.06 0 .293-.293.293-.769 0-1.061l-.551-.552-.115-.115c-.14-.14-.14-.369 0-.51.14-.14.368-.14.509 0l.957.957c.142.141.33.22.53.22s.389-.079.53-.22c.293-.293.293-.768.001-1.06l-.906-.908c-.14-.141-.14-.369 0-.51.142-.14.37-.139.51.002l.905.906.189.19c.147.143.334.22.531.22.2 0 .388-.08.531-.222.292-.29.292-.767 0-1.059l-.918-.918c-.14-.14-.14-.368 0-.509.14-.14.369-.14.51 0l.916.917.002.002.343.343c.14.142.329.22.53.22s.389-.078.53-.22c.152-.152.229-.352.218-.563-.006-.16-.065-.314-.165-.438-.02-.026-.037-.043-.053-.06-.14-.14-.14-.368 0-.509.14-.14.368-.14.51 0 .04.041.077.083.109.125z"/>
        <path fill="#000" d="M14.904.053c-1.44 0-2.608 1.167-2.608 2.608 0 1.44 1.168 2.608 2.608 2.608 1.44 0 2.608-1.168 2.608-2.608 0-1.44-1.168-2.608-2.608-2.608zm1.333 2.138l-1.34 1.542c-.065.075-.157.12-.256.123h-.015c-.094 0-.183-.035-.25-.1l-.892-.86c-.143-.138-.147-.366-.01-.509.139-.143.367-.147.51-.009l.619.596 1.091-1.256c.13-.15.358-.166.508-.035.15.13.166.357.035.508z"/>
    </g>
</svg>
