<svg xmlns="http://www.w3.org/2000/svg" width="26" height="22" viewBox="0 0 26 22">
    <g>
        <circle cx="19.83" cy="18.101" r="1"/>
        <path d="M20.617 3.925H3.463c-.21 0-.378.169-.378.378s.169.378.378.378h17.154c.209 0 .378-.17.378-.378 0-.209-.17-.378-.378-.378zM20.995 7.683c0-.208-.17-.378-.378-.378H3.463c-.21 0-.378.17-.378.378 0 .21.169.378.378.378h17.154c.209 0 .378-.169.378-.378zM3.463 10.686c-.21 0-.378.17-.378.378 0 .209.169.378.378.378h8.428c.209 0 .378-.17.378-.378 0-.209-.17-.378-.378-.378H3.463zM19.866 12.256c-.885-.018-1.644.629-1.766 1.504-.011.08-.017.162-.017.243 0 .209.17.378.378.378.209 0 .378-.169.378-.378 0-.046.003-.093.01-.138.069-.497.5-.863 1.002-.853.516.01.942.423.969.938.03.573-.426 1.045-.99 1.045-.209 0-.378.169-.378.378v1.431c0 .209.17.378.378.378.209 0 .378-.169.378-.378V15.71c.812-.182 1.413-.919 1.367-1.798-.047-.91-.798-1.636-1.709-1.655z"/>
        <path d="M25.748 20.134l-1.205-2.728c-.032-.073-.034-.156-.006-.233.22-.591.327-1.214.316-1.85-.049-2.723-2.276-4.928-5-4.95-2.818-.021-5.104 2.262-5.081 5.083.022 2.766 2.287 5.016 5.077 4.999.671-.005 1.322-.14 1.936-.401.067-.029.143-.031.214-.008l2.94.977c.25.083.515.014.694-.182.177-.195.221-.466.115-.707zm-3.51-.805c-.11-.037-.223-.055-.336-.055-.141 0-.282.028-.413.084-.521.222-1.075.337-1.645.34-2.36.017-4.297-1.887-4.316-4.248-.02-2.393 1.913-4.321 4.284-4.321h.036c2.302.018 4.208 1.905 4.249 4.207.01.541-.08 1.07-.268 1.573-.098.263-.09.548.023.803l1.114 2.523-2.729-.906z"/>
        <path d="M13.381 15.466H8.04c-.31 0-.604.117-.828.33l-3.9 3.703.57-3.172c.081-.449-.264-.86-.72-.86h-.24c-1.194 0-2.166-.973-2.166-2.167V2.932c0-1.194.972-2.166 2.166-2.166h18.235c1.195 0 2.167.972 2.167 2.166v7.905c0 .21.169.378.378.378.208 0 .378-.169.378-.378V2.932c0-1.611-1.311-2.922-2.923-2.922H2.922C1.311.01 0 1.32 0 2.932V13.3c0 1.611 1.31 2.922 2.922 2.922h.211l-.621 3.452c-.05.278.083.556.332.69.248.134.554.095.76-.1l4.128-3.92c.083-.078.193-.122.308-.122h5.341c.21 0 .378-.17.378-.378 0-.209-.169-.378-.378-.378z"/>
    </g>
</svg>
