<?xml version="1.0" encoding="UTF-8"?>
<svg width="97px" height="19px" viewBox="0 0 97 19" version="1.1" xmlns="http://www.w3.org/2000/svg" xmlns:xlink="http://www.w3.org/1999/xlink">
    <title>32C2A3C4-F429-466C-82AF-1BCC011C6E32@3x</title>
    <defs>
        <linearGradient x1="5.45257414%" y1="-2.48407643%" x2="92.0477707%" y2="99.6178344%" id="linearGradient-1">
            <stop stop-color="#F9C515" offset="1%"></stop>
            <stop stop-color="#E88F24" offset="100%"></stop>
        </linearGradient>
        <linearGradient x1="4.52292441%" y1="13.819311%" x2="95.6629492%" y2="86.6742022%" id="linearGradient-2">
            <stop stop-color="#1E89CA" offset="1%"></stop>
            <stop stop-color="#005E9A" offset="100%"></stop>
        </linearGradient>
        <linearGradient x1="50.0269833%" y1="27.7600849%" x2="50.0269833%" y2="97.5583864%" id="linearGradient-3">
            <stop stop-color="#249847" offset="0%"></stop>
            <stop stop-color="#00844A" offset="100%"></stop>
        </linearGradient>
        <linearGradient x1="43.6851739%" y1="9.82490551%" x2="57.4740696%" y2="91.4305662%" id="linearGradient-4">
            <stop stop-color="#D52028" offset="0%"></stop>
            <stop stop-color="#BA202B" offset="100%"></stop>
        </linearGradient>
    </defs>
    <g id="Final-UI" stroke="none" stroke-width="1" fill="none" fill-rule="evenodd">
        <g id="schedule---LOT-event" transform="translate(-1200.000000, -700.000000)" fill-rule="nonzero">
            <g id="Group-4" transform="translate(380.000000, 598.000000)">
                <g id="Group-25" transform="translate(97.000000, 50.000000)">
                    <g id="Group-21" transform="translate(696.000000, 1.000000)">
                        <g id="Group-31" transform="translate(26.000000, 8.000000)">
                            <g id="Logos-05" transform="translate(1.000000, 43.000000)">
                                <path d="M58.6239965,10.7359994 C58.5369302,8.14257723 59.8708174,5.70801111 62.1033981,4.38551261 C64.3359788,3.0630141 67.1120133,3.0630141 69.344594,4.38551261 C71.5771747,5.70801111 72.911062,8.14257723 72.8239957,10.7359994 C72.911062,13.3294215 71.5771747,15.7639876 69.344594,17.0864861 C67.1120133,18.4089846 64.3359788,18.4089846 62.1033981,17.0864861 C59.8708174,15.7639876 58.5369302,13.3294215 58.6239965,10.7359994 L58.6239965,10.7359994 Z M70.3279958,10.7359994 C70.3279958,7.86399953 68.5119959,5.71999966 65.7279961,5.71999966 C62.9439962,5.71999966 61.1279964,7.86399953 61.1279964,10.7359994 C61.1279964,13.6079992 62.9119963,15.7519991 65.7279961,15.7519991 C68.5439959,15.7519991 70.3279958,13.5999992 70.3279958,10.7359994 Z" id="Shape" fill="#000000"></path>
                                <path d="M81.9039951,17.6719989 L81.9039951,11.3839993 C81.9039951,9.78399942 81.1039952,9.30399945 79.8639952,9.30399945 C78.8485337,9.34228723 77.9022485,9.82861337 77.2799954,10.6319994 L77.2799954,17.6719989 L75.0959955,17.6719989 L75.0959955,7.61599955 L77.2799954,7.61599955 L77.2799954,8.96799947 C78.1864753,7.95450548 79.4802707,7.37302437 80.8399952,7.36799956 C83.0079951,7.36799956 84.087995,8.52799949 84.087995,10.5679994 L84.087995,17.6479989 L81.9039951,17.6719989 Z" id="Path" fill="#000000"></path>
                                <path d="M86.3119949,12.6319992 C86.2641365,11.2495673 86.7811996,9.9072359 87.7441033,8.91414721 C88.7070069,7.92105852 90.0327441,7.36282153 91.4159946,7.36796386 C94.4319944,7.36796386 96.3519943,9.65599942 96.3519943,12.8159992 L96.3519943,13.3599992 L88.6079947,13.3599992 C88.7482214,14.9974296 90.167439,16.2250529 91.8079945,16.127999 C92.872237,16.1297991 93.8979378,15.7298043 94.6799944,15.0079991 L95.6799943,16.439999 C94.5547477,17.4292711 93.0977971,17.9577728 91.5999945,17.9199989 C90.1773852,17.9894075 88.7916555,17.4546048 87.7845222,16.4474715 C86.7773889,15.4403383 86.2425863,14.0546086 86.3119949,12.6319992 L86.3119949,12.6319992 Z M91.3919946,9.15199945 C89.8901658,9.12037174 88.6404295,10.298898 88.5839947,11.7999993 L94.2479944,11.7999993 C94.2295139,11.0669918 93.915874,10.3724929 93.3781849,9.87396321 C92.8404957,9.3754335 92.1243061,9.11510451 91.3919946,9.15199945 L91.3919946,9.15199945 Z" id="Shape" fill="#000000"></path>
                                <polygon id="Path" fill="#D67927" points="54.5519967 4.25599975 54.5519967 17.087999 52.7759969 18.8159989 52.7759969 6.26399963"></polygon>
                                <rect id="Rectangle" fill="url(#linearGradient-1)" x="41.0719976" y="6.26399963" width="11.7359993" height="12.5599993"></rect>
                                <polygon id="Path" fill="#F9EF79" points="42.9119974 4.26399975 41.0719976 6.26399963 52.8079969 6.26399963 54.5519967 4.25599975"></polygon>
                                <polygon id="Path" fill="#A2CDED" points="28.3839983 4.81599971 39.9199976 3.20799981 38.9519977 5.97599964 28.0239983 7.71199954 28.0719983 5.72799966"></polygon>
                                <polygon id="Path" fill="url(#linearGradient-2)" points="38.9519977 5.97599964 40.5519976 17.231999 29.1759983 18.8319989 27.6399984 7.95199953 28.3039983 7.43199956"></polygon>
                                <polyline id="Path" fill="#2098D4" points="39.9199976 3.20799981 39.9279976 3.2799998 41.4239975 14.7999991 40.5519976 17.231999 38.9519977 5.97599964"></polyline>
                                <polygon id="Path" fill="url(#linearGradient-3)" points="18.6319989 3.85599977 28.8479983 8.4639995 24.2399986 18.9279989 14.0239992 14.3199991"></polygon>
                                <polygon id="Path" fill="#A3CF9F" points="17.575999 0.271999984 18.6319989 3.85599977 28.8479983 8.4639995 27.9919983 5.0399997"></polygon>
                                <polygon id="Path" fill="#6DB75D" points="17.575999 0.271999984 13.4639992 10.0319994 14.0239992 14.3199991 18.6319989 3.85599977"></polygon>
                                <polygon id="Path" fill="url(#linearGradient-4)" points="11.8719993 5.95999964 13.5599992 17.031999 2.26399987 18.8079989 0.447999973 7.70399954"></polygon>
                                <polygon id="Path" fill="#7C1816" points="12.6479992 1.92799989 14.3199991 13.1119992 13.5599992 17.031999 11.8719993 5.95999964"></polygon>
                                <path d="M51.015997,10.7839994 C50.7850605,10.1856904 50.4338178,9.64112809 49.983997,9.18399945 C49.569195,8.75443899 49.0710093,8.41414821 48.5199971,8.18399951 C47.9643023,7.95610067 47.3685776,7.84185211 46.7679972,7.84799953 C46.1623835,7.84354325 45.561755,7.95768984 44.9999973,8.18399951 C44.4489851,8.41414821 43.9507994,8.75443899 43.5359974,9.18399945 C43.0958993,9.63200483 42.7479927,10.1620187 42.5119975,10.7439994 C42.2833239,11.3552344 42.1694164,12.0034224 42.1759975,12.6559992 C42.1695847,13.3066789 42.2863028,13.9527002 42.5199975,14.5599991 C42.7489556,15.1555589 43.0943545,15.6994941 43.5359974,16.159999 C43.9452506,16.5867939 44.4382044,16.9245081 44.9839973,17.151999 C45.5509168,17.3797658 46.1570633,17.493928 46.7679972,17.487999 C47.3684422,17.49265 47.9638745,17.3784576 48.5199971,17.151999 C49.0686915,16.9248312 49.5664425,16.5902773 49.983997,16.167999 C50.4313821,15.7089253 50.782284,15.1648914 51.015997,14.5679991 C51.4850902,13.3420053 51.4850902,11.9859932 51.015997,10.7599994 L51.015997,10.7839994 Z M48.6159971,14.9279991 C48.140543,15.4419686 47.4721552,15.7341831 46.7719972,15.7341831 C46.0718392,15.7341831 45.4034514,15.4419686 44.9279973,14.9279991 C44.4426984,14.2856836 44.2016682,13.4917019 44.2479974,12.6879992 C44.1955463,11.8699914 44.4335273,11.0597227 44.9199973,10.3999994 C45.3916418,9.87929824 46.061446,9.58227126 46.7639972,9.58227126 C47.4665484,9.58227126 48.1363526,9.87929824 48.6079971,10.3999994 C49.0908463,11.0554201 49.3286366,11.8593776 49.2799971,12.6719992 C49.3303555,13.4798655 49.0922065,14.2793659 48.6079971,14.9279991 L48.6159971,14.9279991 Z M10.6479994,15.2719991 C10.5525384,15.1638716 10.4315263,15.0813633 10.2959994,15.0319991 C10.1194378,14.980213 9.93595379,14.9559283 9.75199942,14.9599991 C9.51875243,14.9643907 9.28613593,14.9857807 9.05599946,15.0239991 L6.07999964,15.5359991 C6.13450133,15.2186658 6.24271914,14.9129505 6.39999962,14.6319991 C6.6969978,14.1169129 7.02841739,13.6224562 7.39199956,13.1519992 L7.39199956,13.1519992 C7.54399955,12.9519992 7.66399954,12.7999992 7.73599954,12.6879992 C7.82126907,12.5909396 7.90137951,12.4894664 7.97599952,12.3839993 C8.52543119,11.7307222 8.95596044,10.9860962 9.24799945,10.1839994 C9.33560378,9.86490314 9.39187025,9.53802176 9.41599944,9.20799945 C9.41599944,9.11999946 9.41599944,9.02399946 9.41599944,8.93599947 C9.41453532,8.70259976 9.39312406,8.46975228 9.35199944,8.23999951 C9.32885805,8.0597797 9.27756696,7.88431018 9.19999945,7.71999954 C9.13935554,7.59781648 9.04847737,7.49316889 8.93599947,7.41599956 C8.77980149,7.32981485 8.60191541,7.29090227 8.4239995,7.30399956 C8.20094958,7.30795485 7.97871303,7.33205279 7.75999954,7.37599956 L4.35199974,7.99999952 C4.01473299,8.03665595 3.69524773,8.17000631 3.4319998,8.3839995 C3.27523635,8.52412865 3.18756084,8.72578232 3.19199981,8.93599947 C3.18841127,8.99461125 3.18841127,9.05338767 3.19199981,9.11199946 C3.2277312,9.37981016 3.39622684,9.61149167 3.63999978,9.72799942 C3.80737413,9.79648767 3.9872295,9.82918864 4.16799975,9.82399941 C4.31981835,9.83450104 4.47218112,9.83450104 4.62399972,9.82399941 L7.51199955,9.33599944 C7.51199955,9.38399944 7.51199955,9.43999944 7.51199955,9.48799943 C7.51262365,9.66839504 7.48008297,9.8473688 7.41599956,10.0159994 C7.25394256,10.3843771 7.03827411,10.7267508 6.7759996,11.0319993 L6.32799962,11.5839993 C5.69062105,12.3233679 5.1328786,13.1278041 4.66399972,13.9839992 L4.66399972,13.9839992 C4.4350024,14.4086905 4.26797518,14.8639743 4.16799975,15.3359991 C4.11494676,15.5831525 4.08813152,15.8352157 4.08799976,16.087999 C4.07184388,16.2529377 4.07184388,16.4190604 4.08799976,16.583999 C4.11810418,16.7826226 4.17460373,16.9763354 4.25599975,17.159999 C4.32395106,17.2935662 4.42608425,17.4067408 4.55199973,17.487999 C4.71248315,17.5505312 4.88382124,17.5804474 5.0559997,17.575999 C5.44798667,17.5626084 5.83841618,17.5198216 6.22399963,17.447999 L9.35199944,16.911999 C9.76579511,16.871014 10.1636569,16.7310764 10.5119994,16.503999 C10.690832,16.3605091 10.7916163,16.141155 10.7839994,15.9119991 C10.7875289,15.8507165 10.7875289,15.7892816 10.7839994,15.7279991 C10.7927409,15.5660477 10.7477433,15.405744 10.6559994,15.2719991 L10.6479994,15.2719991 Z M24.799999,7.78399954 C23.9573391,6.92212232 22.8053346,6.43252038 21.5999987,6.42399962 L21.5999987,6.42399962 C21.0004799,6.43345772 20.4094106,6.56692498 19.8639988,6.81599959 L19.8639988,6.81599959 C19.2616479,7.06866141 18.7172035,7.4416058 18.2639989,7.91199953 C17.8263421,8.4102801 17.4797293,8.98164969 17.239999,9.59999943 C16.9808507,10.217306 16.83193,10.875265 16.799999,11.5439993 L16.799999,11.7599993 C16.8000995,12.3348828 16.8974739,12.9056052 17.087999,13.4479992 C17.287747,14.0050008 17.6010329,14.514431 18.0079989,14.9439991 C18.4318472,15.3795334 18.9411775,15.7227185 19.5039988,15.951999 L19.5039988,15.951999 C20.0439327,16.1881538 20.6266805,16.3106942 21.2159987,16.311999 L21.2159987,16.311999 C21.8143609,16.3073446 22.4053347,16.1793456 22.9519986,15.9359991 L22.9519986,15.9359991 C23.55123,15.674073 24.0944447,15.2992549 24.5519985,14.8319991 C24.9969997,14.3376777 25.3517218,13.7690392 25.5999985,13.1519992 C25.8709161,12.5345716 26.0281052,11.8732934 26.0639987,11.1999993 C26.0639987,11.1359993 26.0639987,11.0799993 26.0639987,11.0159993 C26.0642035,10.4337779 25.9584821,9.85637649 25.7519985,9.31199944 C25.5433698,8.74249608 25.2192531,8.22227519 24.799999,7.78399954 Z M23.6799986,12.3439993 C23.4035983,13.1241807 22.8668008,13.7852892 22.1599987,14.2159995 C21.84294,14.3966347 21.4848913,14.4930325 21.1199987,14.4959991 C20.7894046,14.4907265 20.4631279,14.4200332 20.1599988,14.2879991 C19.5080913,14.0305837 19.0178502,13.4779484 18.8399989,12.7999992 C18.7751427,12.562807 18.7428467,12.3178959 18.7439691,12.0719993 C18.7591525,11.4946267 18.8897169,10.9261272 19.1279989,10.3999994 C19.4102575,9.60798088 19.9514321,8.93433122 20.6639988,8.48799949 C20.9816747,8.30982291 21.3397669,8.21616803 21.7039987,8.21599951 C22.037615,8.21729944 22.367296,8.28813997 22.6719986,8.4239995 C23.328516,8.67711898 23.8228723,9.23103625 23.9999986,9.91199941 C24.0648204,10.1464705 24.0971224,10.3887355 24.0960269,10.6319994 C24.0831493,11.2225274 23.9526008,11.804556 23.7119986,12.3439993 L23.6799986,12.3439993 Z M36.9919978,8.13599952 C36.9651564,7.83490123 36.8351638,7.55230854 36.6239978,7.33599956 C36.4704444,7.19209381 36.2663717,7.11448868 36.0559979,7.11999958 L35.8799979,7.11999958 C35.6097305,7.14643513 35.3672064,7.29727331 35.2239979,7.52799955 C35.1176041,7.70373703 35.0647802,7.90669193 35.0719979,8.11199952 C35.0642773,8.20250182 35.0642773,8.2934972 35.0719979,8.3839995 L35.4879979,11.3119993 L32.2159981,11.7999993 L31.7999981,8.86399947 C31.7722544,8.56473126 31.645583,8.28323924 31.4399981,8.06399952 C31.2864447,7.92009377 31.082372,7.84248864 30.8719982,7.84799953 L30.7199982,7.84799953 C30.4415179,7.86896228 30.1879925,8.01636076 30.0319982,8.24799951 C29.9247265,8.42336512 29.8718327,8.62658855 29.8799982,8.83199947 C29.872424,8.92517914 29.872424,9.01881979 29.8799982,9.11199946 L31.0799981,16.799999 C31.0989704,17.1047948 31.2334354,17.3908907 31.4559981,17.599999 C31.6161713,17.736456 31.8217252,17.8078289 32.0319981,17.7999989 C32.095766,17.8077068 32.1602302,17.8077068 32.2239981,17.7999989 C32.4852623,17.7717915 32.7186878,17.6240538 32.855998,17.399999 C32.9532943,17.2241034 33.0003431,17.0248377 32.991998,16.823999 C32.991998,16.735999 32.991998,16.647999 32.991998,16.551999 L32.5279981,13.5359992 L35.7999979,13.0559992 L36.2479978,15.999999 C36.2640586,16.3038614 36.395718,16.5900775 36.6159978,16.799999 C36.7728102,16.9429854 36.9800095,17.0178074 37.1919978,17.007999 L37.3599978,17.007999 C37.6280147,16.9810628 37.8693173,16.8339271 38.0159977,16.607999 C38.1202903,16.4229347 38.1702055,16.2121819 38.1599977,15.999999 C38.1599977,15.9119991 38.1599977,15.8239991 38.1599977,15.7279991 L36.9919978,8.13599952 Z" id="Shape" fill="#FFFFFF"></path>
                                <polygon id="Path" fill="#E63B33" points="0.447999973 7.70399954 0.67199996 6.59199961 1.23999993 3.75199978 12.6479992 1.92799989 11.8719993 5.95999964"></polygon>
                            </g>
                        </g>
                    </g>
                </g>
            </g>
        </g>
    </g>
</svg>