<?xml version="1.0" encoding="UTF-8"?>
<svg width="85px" height="43px" viewBox="0 0 85 43" version="1.1" xmlns="http://www.w3.org/2000/svg" xmlns:xlink="http://www.w3.org/1999/xlink">
    <title>01AD4B9C-B72E-4F7D-9EC7-FD484BE6EFB4@3x</title>
    <g id="Final-UI" stroke="none" stroke-width="1" fill="none" fill-rule="evenodd">
        <g id="schedule---LOT-event" transform="translate(-684.000000, -682.000000)" fill-rule="nonzero">
            <g id="Group-4" transform="translate(380.000000, 598.000000)">
                <g id="Group-25" transform="translate(97.000000, 50.000000)">
                    <g id="Group-12" transform="translate(174.000000, 1.000000)">
                        <g id="Group-27" transform="translate(26.000000, 8.000000)">
                            <g id="Logos-02" transform="translate(7.000000, 25.000000)">
                                <rect id="Rectangle" fill="#BD2227" x="0.53" y="0.49" width="83.94" height="41.97"></rect>
                                <polygon id="Path" fill="#FFFFFF" points="17.49 25.54 14.66 32.16 13.52 32.16 11.82 28.3 10.08 32.16 8.93 32.16 6.16 25.54 8.2 25.54 9.56 29.16 11.11 25.54 12.52 25.54 14.05 29.16 15.47 25.54 17.49 25.54"></polygon>
                                <path d="M25.75,32.07 L23.75,32.07 L23.22,30.75 L20.36,30.75 L19.82,32.07 L17.82,32.07 L20.71,25.54 L22.89,25.54 L25.77,32.07 L25.75,32.07 Z M22.75,29.61 L21.75,27.23 L20.75,29.61 L22.75,29.61 Z" id="Shape" fill="#FFFFFF"></path>
                                <path d="M34.54,28.92 C34.565022,29.4823035 34.4408191,30.0412167 34.18,30.54 C33.9575509,30.9235843 33.6659642,31.2626386 33.32,31.54 C32.7355688,31.946061 32.0298823,32.1401248 31.32,32.09 L27.82,32.09 L27.82,25.5399346 L30.54,25.5399346 C30.8742723,25.5386337 31.2082891,25.5586747 31.54,25.6 C31.8052831,25.6342233 32.0665465,25.6945149 32.32,25.78 C32.5544359,25.8266972 32.7826385,25.9005274 33,26 C33.1560222,26.0893716 33.303332,26.193158 33.44,26.31 C33.6575655,26.5131006 33.8460153,26.7452976 34,27 C34.1767525,27.2679976 34.311634,27.5613649 34.4,27.87 C34.5029952,28.2137853 34.5535636,28.5711356 34.55,28.93 L34.54,28.92 Z M32.54,28.84 C32.5673542,28.4045571 32.4590503,27.9713418 32.23,27.6 C32.061082,27.3235825 31.8038948,27.1121957 31.5,27 C31.2208231,26.9001916 30.9264812,26.849443 30.63,26.8499955 L29.79,26.8499955 L29.79,30.72 L30.63,30.72 C31.1139566,30.7414501 31.5926416,30.6121702 32,30.3499955 C32.4367614,29.9779913 32.6519885,29.4078282 32.57,28.84 L32.54,28.84 Z" id="Shape" fill="#FFFFFF"></path>
                                <polygon id="Path" fill="#FFFFFF" points="43.63 32.08 41.66 32.08 41.66 29.52 38.7 29.52 38.7 32.08 36.72 32.08 36.72 25.54 38.7 25.54 38.7 27.94 41.66 27.94 41.66 25.54 43.63 25.54 43.63 32.08"></polygon>
                                <polygon id="Path" fill="#FFFFFF" points="56.83 25.54 54 32.16 52.86 32.16 51.16 28.3 49.42 32.16 48.27 32.16 45.49 25.54 47.53 25.54 48.89 29.16 50.45 25.54 51.86 25.54 53.39 29.16 54.81 25.54 56.83 25.54"></polygon>
                                <path d="M65.09,32.07 L63.09,32.07 L62.55,30.75 L59.7,30.75 L59.15,32.07 L57.15,32.07 L60.05,25.54 L62.22,25.54 L65.11,32.07 L65.09,32.07 Z M62.09,29.61 L61.09,27.23 L60.09,29.61 L62.09,29.61 Z" id="Shape" fill="#FFFFFF"></path>
                                <polygon id="Path" fill="#FFFFFF" points="74.26 32.08 72.5 32.08 69.11 28.43 69.11 32.08 67.16 32.08 67.16 25.54 68.91 25.54 72.29 29.16 72.29 25.54 74.26 25.54 74.26 32.08"></polygon>
                                <polygon id="Path" fill="#FFFFFF" points="76.87 32.08 78.84 32.08 78.84 25.54 76.87 25.54 76.87 32.08"></polygon>
                                <polygon id="Path" fill="#FFFFFF" points="17.78 39.33 17.78 35.09 20.04 35.09 20.04 35.62 18.39 35.62 18.39 36.86 19.97 36.86 19.97 37.4 18.39 37.4 18.39 39.33 17.78 39.33"></polygon>
                                <path d="M21.86,37.21 C21.8332748,36.6369632 22.0264382,36.0753585 22.4,35.64 C22.7783657,35.2120205 23.3292131,34.9769923 23.9,35 C24.4721001,34.9742977 25.0258096,35.2053156 25.41,35.63 C26.1288919,36.5569511 26.1288919,37.8530489 25.41,38.78 C24.5710214,39.5825493 23.2489786,39.5825493 22.41,38.78 C22.0420314,38.3381062 21.8529411,37.7744031 21.88,37.2 L21.86,37.21 Z M22.5,37.21 C22.4840138,37.6202639 22.6034934,38.0243861 22.84,38.36 C23.0838748,38.698887 23.4830089,38.8909232 23.9,38.87 C24.3297352,38.8991897 24.744606,38.7068405 25,38.36 C25.2290371,38.0212994 25.3445911,37.6186113 25.33,37.21 C25.3488939,36.7977562 25.233056,36.3905684 25,36.05 C24.7436982,35.7328427 24.3577737,35.5485281 23.95,35.5485281 C23.5422263,35.5485281 23.1563018,35.7328427 22.9,36.05 C22.6598649,36.3881082 22.5369455,36.7954984 22.55,37.21 L22.5,37.21 Z" id="Shape" fill="#FFFFFF"></path>
                                <path d="M31.36,35.09 L31.36,37.57 C31.3976668,38.0618519 31.2435778,38.5492034 30.93,38.93 C30.614115,39.2612774 30.1664987,39.4337198 29.71,39.4 C29.254133,39.4295192 28.8082348,39.2577388 28.49,38.93 C28.18439,38.5449222 28.0313138,38.0607744 28.06,37.57 L28.06,35.09 L28.67,35.09 L28.67,37.49 C28.67,38.41 29.02,38.87 29.67,38.87 C30.32,38.87 30.67,38.41 30.67,37.49 L30.67,35.09 L31.36,35.09 Z" id="Path" fill="#FFFFFF"></path>
                                <polygon id="Path" fill="#FFFFFF" points="33.68 39.33 33.68 35.09 34.51 35.09 36.38 38.51 36.39 38.51 36.39 35.09 37 35.09 37 39.33 36.22 39.33 34.3 35.84 34.29 35.84 34.29 39.33 33.68 39.33"></polygon>
                                <path d="M39.36,39.33 L39.36,35.09 L40.61,35.09 C41.1935517,35.0653937 41.7649132,35.2617992 42.21,35.64 C42.6501647,36.0238686 42.892829,36.5864086 42.87,37.17 C42.9100406,37.7678635 42.6915463,38.3541565 42.27,38.78 C41.8085394,39.1709738 41.213619,39.368086 40.61,39.33 L39.36,39.33 Z M39.96,35.62 L39.96,38.8 L40.6,38.8 C41.0439806,38.8665964 41.493464,38.7208227 41.8138525,38.406331 C42.134241,38.0918392 42.2883383,37.645141 42.23,37.2 C42.2575226,36.7542001 42.0938649,36.3177796 41.78,36 C41.482435,35.7225078 41.0865967,35.5749681 40.68,35.59 L39.96,35.62 Z" id="Shape" fill="#FFFFFF"></path>
                                <path d="M44.44,39.33 L46.25,35.09 L46.89,35.09 L48.68,39.33 L48,39.33 L47.57,38.26 L45.51,38.26 L45.07,39.33 L44.44,39.33 Z M47.44,37.76 L46.6,35.66 L45.75,37.76 L47.44,37.76 Z" id="Shape" fill="#FFFFFF"></path>
                                <polygon id="Path" fill="#FFFFFF" points="51.36 39.33 51.36 35.62 50.04 35.62 50.04 35.09 53.29 35.09 53.29 35.62 51.97 35.62 51.97 39.33 51.36 39.33"></polygon>
                                <polygon id="Path" fill="#FFFFFF" points="55.11 39.33 55.11 35.09 55.72 35.09 55.72 39.33 55.11 39.33"></polygon>
                                <path d="M57.8,37.21 C57.7732748,36.6369632 57.9664382,36.0753585 58.34,35.64 C58.7363344,35.2393783 59.2764588,35.0139474 59.84,35.0139474 C60.4035412,35.0139474 60.9436656,35.2393783 61.34,35.64 C62.0588919,36.5669511 62.0588919,37.8630489 61.34,38.79 C60.5010214,39.5925493 59.1789786,39.5925493 58.34,38.79 C57.9720314,38.3481062 57.7829411,37.7844031 57.81,37.21 L57.8,37.21 Z M58.44,37.21 C58.4283444,37.6197115 58.5474282,38.0224949 58.78,38.36 C59.0401116,38.6814474 59.4314949,38.8682141 59.845,38.8682141 C60.2585051,38.8682141 60.6498884,38.6814474 60.91,38.36 C61.1390371,38.0212994 61.2545911,37.6186113 61.24,37.21 C61.2559693,36.7966305 61.1365919,36.389343 60.9,36.05 C60.6417401,35.7325312 60.2542488,35.5482395 59.845,35.5482395 C59.4357512,35.5482395 59.0482599,35.7325312 58.79,36.05 C58.5498649,36.3881082 58.4269455,36.7954984 58.44,37.21 L58.44,37.21 Z" id="Shape" fill="#FFFFFF"></path>
                                <polygon id="Path" fill="#FFFFFF" points="63.9 39.33 63.9 35.09 64.72 35.09 66.6 38.51 66.61 38.51 66.61 35.09 67.22 35.09 67.22 39.33 66.44 39.33 64.52 35.84 64.5 35.84 64.5 39.33 63.9 39.33"></polygon>
                                <polygon id="Path" fill="#FFFFFF" points="19.68 8.25 6.16 6.53 41.88 24.11"></polygon>
                                <polygon id="Path" fill="#FFFFFF" points="30.35 7.92 19.6 5 41.87 23.9"></polygon>
                                <polygon id="Path" fill="#FFFFFF" points="65.32 8.22 78.84 6.46 43.17 24.15"></polygon>
                                <polygon id="Path" fill="#FFFFFF" points="54.67 7.93 65.42 5.02 43.15 23.92"></polygon>
                                <path d="M43.05,23.68 L55.83,3.54 L47.2,7.61 L45.61,14.06 L42.61,8.18 L42.61,8.18 L39.61,14.06 L38.01,7.61 L29.3,3.54 L42.08,23.68 C42.2055281,23.5486971 42.3783732,23.4730774 42.56,23.47 C42.7439666,23.4757248 42.9189809,23.550731 43.05,23.68 L43.05,23.68 Z" id="Path" fill="#FFFFFF"></path>
                            </g>
                        </g>
                    </g>
                </g>
            </g>
        </g>
    </g>
</svg>